<svg width="1363" height="163" viewBox="0 0 1363 163" fill="none" xmlns="http://www.w3.org/2000/svg">
<path d="M0 15C0 6.71573 6.71573 0 15 0H37V163H15C6.71573 163 0 156.284 0 148V15Z" fill="#424242"/>
<rect width="1097" height="163" transform="translate(37)" fill="#F0F0F0"/>
<path d="M101.906 53.9219L94.3945 51.2383V48.0859L104.602 52.375V54.6367L101.906 53.9219ZM94.3945 56.1719L101.918 53.4297L104.602 52.7852V55.0352L94.3945 59.3242V56.1719ZM119.836 46.8555L115.195 61H111.457L117.797 43.9375H120.176L119.836 46.8555ZM123.691 61L119.039 46.8555L118.664 43.9375H121.066L127.441 61H123.691ZM123.48 54.6484V57.4023H114.469V54.6484H123.48ZM131.812 50.9453V61H128.426V48.3203H131.602L131.812 50.9453ZM131.344 54.2148H130.406C130.406 53.332 130.512 52.5195 130.723 51.7773C130.941 51.0273 131.258 50.3789 131.672 49.832C132.094 49.2773 132.613 48.8477 133.23 48.543C133.848 48.2383 134.562 48.0859 135.375 48.0859C135.938 48.0859 136.453 48.1719 136.922 48.3438C137.391 48.5078 137.793 48.7695 138.129 49.1289C138.473 49.4805 138.738 49.9414 138.926 50.5117C139.113 51.0742 139.207 51.75 139.207 52.5391V61H135.832V52.9141C135.832 52.3359 135.754 51.8906 135.598 51.5781C135.441 51.2656 135.219 51.0469 134.93 50.9219C134.648 50.7969 134.309 50.7344 133.91 50.7344C133.473 50.7344 133.09 50.8242 132.762 51.0039C132.441 51.1836 132.176 51.4336 131.965 51.7539C131.754 52.0664 131.598 52.4336 131.496 52.8555C131.395 53.2773 131.344 53.7305 131.344 54.2148ZM138.891 53.8281L137.684 53.9805C137.684 53.1523 137.785 52.3828 137.988 51.6719C138.199 50.9609 138.508 50.3359 138.914 49.7969C139.328 49.2578 139.84 48.8398 140.449 48.543C141.059 48.2383 141.762 48.0859 142.559 48.0859C143.168 48.0859 143.723 48.1758 144.223 48.3555C144.723 48.5273 145.148 48.8047 145.5 49.1875C145.859 49.5625 146.133 50.0547 146.32 50.6641C146.516 51.2734 146.613 52.0195 146.613 52.9023V61H143.227V52.9023C143.227 52.3164 143.148 51.8711 142.992 51.5664C142.844 51.2539 142.625 51.0391 142.336 50.9219C142.055 50.7969 141.719 50.7344 141.328 50.7344C140.922 50.7344 140.566 50.8164 140.262 50.9805C139.957 51.1367 139.703 51.3555 139.5 51.6367C139.297 51.918 139.145 52.2461 139.043 52.6211C138.941 52.9883 138.891 53.3906 138.891 53.8281ZM152.602 50.7578V65.875H149.227V48.3203H152.355L152.602 50.7578ZM160.629 54.5195V54.7656C160.629 55.6875 160.52 56.543 160.301 57.332C160.09 58.1211 159.777 58.8086 159.363 59.3945C158.949 59.9727 158.434 60.4258 157.816 60.7539C157.207 61.0742 156.504 61.2344 155.707 61.2344C154.934 61.2344 154.262 61.0781 153.691 60.7656C153.121 60.4531 152.641 60.0156 152.25 59.4531C151.867 58.8828 151.559 58.2227 151.324 57.4727C151.09 56.7227 150.91 55.918 150.785 55.0586V54.4141C150.91 53.4922 151.09 52.6484 151.324 51.8828C151.559 51.1094 151.867 50.4414 152.25 49.8789C152.641 49.3086 153.117 48.8672 153.68 48.5547C154.25 48.2422 154.918 48.0859 155.684 48.0859C156.488 48.0859 157.195 48.2383 157.805 48.543C158.422 48.8477 158.938 49.2852 159.352 49.8555C159.773 50.4258 160.09 51.1055 160.301 51.8945C160.52 52.6836 160.629 53.5586 160.629 54.5195ZM157.242 54.7656V54.5195C157.242 53.9805 157.195 53.4844 157.102 53.0312C157.016 52.5703 156.875 52.168 156.68 51.8242C156.492 51.4805 156.242 51.2148 155.93 51.0273C155.625 50.832 155.254 50.7344 154.816 50.7344C154.355 50.7344 153.961 50.8086 153.633 50.957C153.312 51.1055 153.051 51.3203 152.848 51.6016C152.645 51.8828 152.492 52.2188 152.391 52.6094C152.289 53 152.227 53.4414 152.203 53.9336V55.5625C152.242 56.1406 152.352 56.6602 152.531 57.1211C152.711 57.5742 152.988 57.9336 153.363 58.1992C153.738 58.4648 154.23 58.5977 154.84 58.5977C155.285 58.5977 155.66 58.5 155.965 58.3047C156.27 58.1016 156.516 57.8242 156.703 57.4727C156.898 57.1211 157.035 56.7148 157.113 56.2539C157.199 55.793 157.242 55.2969 157.242 54.7656ZM172.652 43.9375V61H169.148V43.9375H172.652ZM179.039 51.0273V61H175.664V48.3203H178.828L179.039 51.0273ZM178.547 54.2148H177.633C177.633 53.2773 177.754 52.4336 177.996 51.6836C178.238 50.9258 178.578 50.2812 179.016 49.75C179.453 49.2109 179.973 48.8008 180.574 48.5195C181.184 48.2305 181.863 48.0859 182.613 48.0859C183.207 48.0859 183.75 48.1719 184.242 48.3438C184.734 48.5156 185.156 48.7891 185.508 49.1641C185.867 49.5391 186.141 50.0352 186.328 50.6523C186.523 51.2695 186.621 52.0234 186.621 52.9141V61H183.223V52.9023C183.223 52.3398 183.145 51.9023 182.988 51.5898C182.832 51.2773 182.602 51.0586 182.297 50.9336C182 50.8008 181.633 50.7344 181.195 50.7344C180.742 50.7344 180.348 50.8242 180.012 51.0039C179.684 51.1836 179.41 51.4336 179.191 51.7539C178.98 52.0664 178.82 52.4336 178.711 52.8555C178.602 53.2773 178.547 53.7305 178.547 54.2148ZM195.398 48.3203V50.7109H188.016V48.3203H195.398ZM189.844 45.1914H193.219V57.1797C193.219 57.5469 193.266 57.8281 193.359 58.0234C193.461 58.2188 193.609 58.3555 193.805 58.4336C194 58.5039 194.246 58.5391 194.543 58.5391C194.754 58.5391 194.941 58.5312 195.105 58.5156C195.277 58.4922 195.422 58.4688 195.539 58.4453L195.551 60.9297C195.262 61.0234 194.949 61.0977 194.613 61.1523C194.277 61.207 193.906 61.2344 193.5 61.2344C192.758 61.2344 192.109 61.1133 191.555 60.8711C191.008 60.6211 190.586 60.2227 190.289 59.6758C189.992 59.1289 189.844 58.4102 189.844 57.5195V45.1914ZM203.156 61.2344C202.172 61.2344 201.289 61.0781 200.508 60.7656C199.727 60.4453 199.062 60.0039 198.516 59.4414C197.977 58.8789 197.562 58.2266 197.273 57.4844C196.984 56.7344 196.84 55.9375 196.84 55.0938V54.625C196.84 53.6641 196.977 52.7852 197.25 51.9883C197.523 51.1914 197.914 50.5 198.422 49.9141C198.938 49.3281 199.562 48.8789 200.297 48.5664C201.031 48.2461 201.859 48.0859 202.781 48.0859C203.68 48.0859 204.477 48.2344 205.172 48.5312C205.867 48.8281 206.449 49.25 206.918 49.7969C207.395 50.3438 207.754 51 207.996 51.7656C208.238 52.5234 208.359 53.3672 208.359 54.2969V55.7031H198.281V53.4531H205.043V53.1953C205.043 52.7266 204.957 52.3086 204.785 51.9414C204.621 51.5664 204.371 51.2695 204.035 51.0508C203.699 50.832 203.27 50.7227 202.746 50.7227C202.301 50.7227 201.918 50.8203 201.598 51.0156C201.277 51.2109 201.016 51.4844 200.812 51.8359C200.617 52.1875 200.469 52.6016 200.367 53.0781C200.273 53.5469 200.227 54.0625 200.227 54.625V55.0938C200.227 55.6016 200.297 56.0703 200.438 56.5C200.586 56.9297 200.793 57.3008 201.059 57.6133C201.332 57.9258 201.66 58.168 202.043 58.3398C202.434 58.5117 202.875 58.5977 203.367 58.5977C203.977 58.5977 204.543 58.4805 205.066 58.2461C205.598 58.0039 206.055 57.6406 206.438 57.1562L208.078 58.9375C207.812 59.3203 207.449 59.6875 206.988 60.0391C206.535 60.3906 205.988 60.6797 205.348 60.9062C204.707 61.125 203.977 61.2344 203.156 61.2344ZM213.844 43V61H210.457V43H213.844ZM220.195 43V61H216.809V43H220.195ZM226.547 48.3203V61H223.16V48.3203H226.547ZM222.949 45.0156C222.949 44.5234 223.121 44.1172 223.465 43.7969C223.809 43.4766 224.27 43.3164 224.848 43.3164C225.418 43.3164 225.875 43.4766 226.219 43.7969C226.57 44.1172 226.746 44.5234 226.746 45.0156C226.746 45.5078 226.57 45.9141 226.219 46.2344C225.875 46.5547 225.418 46.7148 224.848 46.7148C224.27 46.7148 223.809 46.5547 223.465 46.2344C223.121 45.9141 222.949 45.5078 222.949 45.0156ZM237.363 48.3203H240.422V60.5781C240.422 61.7344 240.164 62.7148 239.648 63.5195C239.141 64.332 238.43 64.9453 237.516 65.3594C236.602 65.7812 235.539 65.9922 234.328 65.9922C233.797 65.9922 233.234 65.9219 232.641 65.7812C232.055 65.6406 231.492 65.4219 230.953 65.125C230.422 64.8281 229.977 64.4531 229.617 64L231.105 62.0078C231.496 62.4609 231.949 62.8125 232.465 63.0625C232.98 63.3203 233.551 63.4492 234.176 63.4492C234.785 63.4492 235.301 63.3359 235.723 63.1094C236.145 62.8906 236.469 62.5664 236.695 62.1367C236.922 61.7148 237.035 61.2031 237.035 60.6016V51.25L237.363 48.3203ZM228.832 54.8125V54.5664C228.832 53.5977 228.949 52.7188 229.184 51.9297C229.426 51.1328 229.766 50.4492 230.203 49.8789C230.648 49.3086 231.188 48.8672 231.82 48.5547C232.453 48.2422 233.168 48.0859 233.965 48.0859C234.809 48.0859 235.516 48.2422 236.086 48.5547C236.656 48.8672 237.125 49.3125 237.492 49.8906C237.859 50.4609 238.145 51.1367 238.348 51.918C238.559 52.6914 238.723 53.5391 238.84 54.4609V55C238.723 55.8828 238.547 56.7031 238.312 57.4609C238.078 58.2188 237.77 58.8828 237.387 59.4531C237.004 60.0156 236.527 60.4531 235.957 60.7656C235.395 61.0781 234.723 61.2344 233.941 61.2344C233.16 61.2344 232.453 61.0742 231.82 60.7539C231.195 60.4336 230.66 59.9844 230.215 59.4062C229.77 58.8281 229.426 58.1484 229.184 57.3672C228.949 56.5859 228.832 55.7344 228.832 54.8125ZM232.207 54.5664V54.8125C232.207 55.3359 232.258 55.8242 232.359 56.2773C232.461 56.7305 232.617 57.1328 232.828 57.4844C233.047 57.8281 233.316 58.0977 233.637 58.293C233.965 58.4805 234.352 58.5742 234.797 58.5742C235.414 58.5742 235.918 58.4453 236.309 58.1875C236.699 57.9219 236.992 57.5586 237.188 57.0977C237.383 56.6367 237.496 56.1055 237.527 55.5039V53.9688C237.512 53.4766 237.445 53.0352 237.328 52.6445C237.211 52.2461 237.047 51.9062 236.836 51.625C236.625 51.3438 236.352 51.125 236.016 50.9688C235.68 50.8125 235.281 50.7344 234.82 50.7344C234.375 50.7344 233.988 50.8359 233.66 51.0391C233.34 51.2344 233.07 51.5039 232.852 51.8477C232.641 52.1914 232.48 52.5977 232.371 53.0664C232.262 53.5273 232.207 54.0273 232.207 54.5664ZM248.883 61.2344C247.898 61.2344 247.016 61.0781 246.234 60.7656C245.453 60.4453 244.789 60.0039 244.242 59.4414C243.703 58.8789 243.289 58.2266 243 57.4844C242.711 56.7344 242.566 55.9375 242.566 55.0938V54.625C242.566 53.6641 242.703 52.7852 242.977 51.9883C243.25 51.1914 243.641 50.5 244.148 49.9141C244.664 49.3281 245.289 48.8789 246.023 48.5664C246.758 48.2461 247.586 48.0859 248.508 48.0859C249.406 48.0859 250.203 48.2344 250.898 48.5312C251.594 48.8281 252.176 49.25 252.645 49.7969C253.121 50.3438 253.48 51 253.723 51.7656C253.965 52.5234 254.086 53.3672 254.086 54.2969V55.7031H244.008V53.4531H250.77V53.1953C250.77 52.7266 250.684 52.3086 250.512 51.9414C250.348 51.5664 250.098 51.2695 249.762 51.0508C249.426 50.832 248.996 50.7227 248.473 50.7227C248.027 50.7227 247.645 50.8203 247.324 51.0156C247.004 51.2109 246.742 51.4844 246.539 51.8359C246.344 52.1875 246.195 52.6016 246.094 53.0781C246 53.5469 245.953 54.0625 245.953 54.625V55.0938C245.953 55.6016 246.023 56.0703 246.164 56.5C246.312 56.9297 246.52 57.3008 246.785 57.6133C247.059 57.9258 247.387 58.168 247.77 58.3398C248.16 58.5117 248.602 58.5977 249.094 58.5977C249.703 58.5977 250.27 58.4805 250.793 58.2461C251.324 58.0039 251.781 57.6406 252.164 57.1562L253.805 58.9375C253.539 59.3203 253.176 59.6875 252.715 60.0391C252.262 60.3906 251.715 60.6797 251.074 60.9062C250.434 61.125 249.703 61.2344 248.883 61.2344ZM259.312 51.0273V61H255.938V48.3203H259.102L259.312 51.0273ZM258.82 54.2148H257.906C257.906 53.2773 258.027 52.4336 258.27 51.6836C258.512 50.9258 258.852 50.2812 259.289 49.75C259.727 49.2109 260.246 48.8008 260.848 48.5195C261.457 48.2305 262.137 48.0859 262.887 48.0859C263.48 48.0859 264.023 48.1719 264.516 48.3438C265.008 48.5156 265.43 48.7891 265.781 49.1641C266.141 49.5391 266.414 50.0352 266.602 50.6523C266.797 51.2695 266.895 52.0234 266.895 52.9141V61H263.496V52.9023C263.496 52.3398 263.418 51.9023 263.262 51.5898C263.105 51.2773 262.875 51.0586 262.57 50.9336C262.273 50.8008 261.906 50.7344 261.469 50.7344C261.016 50.7344 260.621 50.8242 260.285 51.0039C259.957 51.1836 259.684 51.4336 259.465 51.7539C259.254 52.0664 259.094 52.4336 258.984 52.8555C258.875 53.2773 258.82 53.7305 258.82 54.2148ZM274.699 58.5977C275.113 58.5977 275.48 58.5195 275.801 58.3633C276.121 58.1992 276.371 57.9727 276.551 57.6836C276.738 57.3867 276.836 57.0391 276.844 56.6406H280.02C280.012 57.5312 279.773 58.3242 279.305 59.0195C278.836 59.707 278.207 60.25 277.418 60.6484C276.629 61.0391 275.746 61.2344 274.77 61.2344C273.785 61.2344 272.926 61.0703 272.191 60.7422C271.465 60.4141 270.859 59.9609 270.375 59.3828C269.891 58.7969 269.527 58.1172 269.285 57.3438C269.043 56.5625 268.922 55.7266 268.922 54.8359V54.4961C268.922 53.5977 269.043 52.7617 269.285 51.9883C269.527 51.207 269.891 50.5273 270.375 49.9492C270.859 49.3633 271.465 48.9062 272.191 48.5781C272.918 48.25 273.77 48.0859 274.746 48.0859C275.785 48.0859 276.695 48.2852 277.477 48.6836C278.266 49.082 278.883 49.6523 279.328 50.3945C279.781 51.1289 280.012 52 280.02 53.0078H276.844C276.836 52.5859 276.746 52.2031 276.574 51.8594C276.41 51.5156 276.168 51.2422 275.848 51.0391C275.535 50.8281 275.148 50.7227 274.688 50.7227C274.195 50.7227 273.793 50.8281 273.48 51.0391C273.168 51.2422 272.926 51.5234 272.754 51.8828C272.582 52.2344 272.461 52.6367 272.391 53.0898C272.328 53.5352 272.297 54.0039 272.297 54.4961V54.8359C272.297 55.3281 272.328 55.8008 272.391 56.2539C272.453 56.707 272.57 57.1094 272.742 57.4609C272.922 57.8125 273.168 58.0898 273.48 58.293C273.793 58.4961 274.199 58.5977 274.699 58.5977ZM287.812 61.2344C286.828 61.2344 285.945 61.0781 285.164 60.7656C284.383 60.4453 283.719 60.0039 283.172 59.4414C282.633 58.8789 282.219 58.2266 281.93 57.4844C281.641 56.7344 281.496 55.9375 281.496 55.0938V54.625C281.496 53.6641 281.633 52.7852 281.906 51.9883C282.18 51.1914 282.57 50.5 283.078 49.9141C283.594 49.3281 284.219 48.8789 284.953 48.5664C285.688 48.2461 286.516 48.0859 287.438 48.0859C288.336 48.0859 289.133 48.2344 289.828 48.5312C290.523 48.8281 291.105 49.25 291.574 49.7969C292.051 50.3438 292.41 51 292.652 51.7656C292.895 52.5234 293.016 53.3672 293.016 54.2969V55.7031H282.938V53.4531H289.699V53.1953C289.699 52.7266 289.613 52.3086 289.441 51.9414C289.277 51.5664 289.027 51.2695 288.691 51.0508C288.355 50.832 287.926 50.7227 287.402 50.7227C286.957 50.7227 286.574 50.8203 286.254 51.0156C285.934 51.2109 285.672 51.4844 285.469 51.8359C285.273 52.1875 285.125 52.6016 285.023 53.0781C284.93 53.5469 284.883 54.0625 284.883 54.625V55.0938C284.883 55.6016 284.953 56.0703 285.094 56.5C285.242 56.9297 285.449 57.3008 285.715 57.6133C285.988 57.9258 286.316 58.168 286.699 58.3398C287.09 58.5117 287.531 58.5977 288.023 58.5977C288.633 58.5977 289.199 58.4805 289.723 58.2461C290.254 58.0039 290.711 57.6406 291.094 57.1562L292.734 58.9375C292.469 59.3203 292.105 59.6875 291.645 60.0391C291.191 60.3906 290.645 60.6797 290.004 60.9062C289.363 61.125 288.633 61.2344 287.812 61.2344Z" fill="#888888"/>
<path d="M106.688 119H99.1172L99.1641 112.672H106.688C108.25 112.672 109.57 112.297 110.648 111.547C111.742 110.797 112.57 109.68 113.133 108.195C113.711 106.695 114 104.852 114 102.664V101.188C114 99.5469 113.836 98.1094 113.508 96.875C113.195 95.625 112.727 94.5859 112.102 93.7578C111.477 92.9141 110.695 92.2812 109.758 91.8594C108.836 91.4375 107.773 91.2266 106.57 91.2266H98.9766V84.875H106.57C108.883 84.875 111 85.2734 112.922 86.0703C114.859 86.8516 116.531 87.9766 117.938 89.4453C119.359 90.8984 120.453 92.625 121.219 94.625C122 96.6094 122.391 98.8125 122.391 101.234V102.664C122.391 105.07 122 107.273 121.219 109.273C120.453 111.273 119.367 113 117.961 114.453C116.555 115.906 114.891 117.031 112.969 117.828C111.062 118.609 108.969 119 106.688 119ZM103.828 84.875V119H95.6016V84.875H103.828ZM138.586 119.469C136.523 119.469 134.68 119.148 133.055 118.508C131.43 117.852 130.055 116.953 128.93 115.812C127.82 114.672 126.969 113.359 126.375 111.875C125.797 110.391 125.508 108.82 125.508 107.164V106.273C125.508 104.414 125.766 102.695 126.281 101.117C126.797 99.5234 127.562 98.1328 128.578 96.9453C129.594 95.7578 130.867 94.8359 132.398 94.1797C133.93 93.5078 135.711 93.1719 137.742 93.1719C139.539 93.1719 141.148 93.4609 142.57 94.0391C143.992 94.6172 145.195 95.4453 146.18 96.5234C147.18 97.6016 147.938 98.9062 148.453 100.438C148.984 101.969 149.25 103.688 149.25 105.594V108.805H128.531V103.859H141.539V103.25C141.555 102.406 141.406 101.688 141.094 101.094C140.797 100.5 140.359 100.047 139.781 99.7344C139.203 99.4219 138.5 99.2656 137.672 99.2656C136.812 99.2656 136.102 99.4531 135.539 99.8281C134.992 100.203 134.562 100.719 134.25 101.375C133.953 102.016 133.742 102.758 133.617 103.602C133.492 104.445 133.43 105.336 133.43 106.273V107.164C133.43 108.102 133.555 108.953 133.805 109.719C134.07 110.484 134.445 111.141 134.93 111.688C135.43 112.219 136.023 112.633 136.711 112.93C137.414 113.227 138.211 113.375 139.102 113.375C140.18 113.375 141.242 113.172 142.289 112.766C143.336 112.359 144.234 111.688 144.984 110.75L148.57 115.016C148.055 115.75 147.32 116.461 146.367 117.148C145.43 117.836 144.305 118.398 142.992 118.836C141.68 119.258 140.211 119.469 138.586 119.469ZM160.43 98.5156V128.75H152.531V93.6406H159.891L160.43 98.5156ZM175.992 106.016V106.508C175.992 108.352 175.781 110.062 175.359 111.641C174.938 113.219 174.312 114.594 173.484 115.766C172.656 116.938 171.625 117.852 170.391 118.508C169.172 119.148 167.758 119.469 166.148 119.469C164.633 119.469 163.328 119.133 162.234 118.461C161.141 117.789 160.227 116.859 159.492 115.672C158.758 114.484 158.164 113.125 157.711 111.594C157.258 110.062 156.898 108.445 156.633 106.742V106.109C156.898 104.281 157.258 102.586 157.711 101.023C158.164 99.4453 158.758 98.0703 159.492 96.8984C160.227 95.7266 161.133 94.8125 162.211 94.1562C163.305 93.5 164.609 93.1719 166.125 93.1719C167.734 93.1719 169.148 93.4766 170.367 94.0859C171.602 94.6953 172.633 95.5703 173.461 96.7109C174.305 97.8359 174.938 99.1875 175.359 100.766C175.781 102.344 175.992 104.094 175.992 106.016ZM168.094 106.508V106.016C168.094 105.031 168.023 104.133 167.883 103.32C167.742 102.492 167.516 101.773 167.203 101.164C166.906 100.555 166.508 100.086 166.008 99.7578C165.508 99.4297 164.891 99.2656 164.156 99.2656C163.312 99.2656 162.602 99.3984 162.023 99.6641C161.461 99.9141 161.008 100.305 160.664 100.836C160.336 101.352 160.102 102 159.961 102.781C159.836 103.547 159.781 104.445 159.797 105.477V107.398C159.766 108.586 159.883 109.633 160.148 110.539C160.414 111.43 160.875 112.125 161.531 112.625C162.188 113.125 163.078 113.375 164.203 113.375C164.953 113.375 165.578 113.203 166.078 112.859C166.578 112.5 166.977 112.008 167.273 111.383C167.57 110.742 167.781 110.008 167.906 109.18C168.031 108.352 168.094 107.461 168.094 106.508ZM187.852 83V119H179.93V83H187.852ZM191.742 106.578V106.086C191.742 104.227 192.008 102.516 192.539 100.953C193.07 99.375 193.852 98.0078 194.883 96.8516C195.914 95.6953 197.188 94.7969 198.703 94.1562C200.219 93.5 201.969 93.1719 203.953 93.1719C205.953 93.1719 207.711 93.5 209.227 94.1562C210.758 94.7969 212.039 95.6953 213.07 96.8516C214.102 98.0078 214.883 99.375 215.414 100.953C215.945 102.516 216.211 104.227 216.211 106.086V106.578C216.211 108.422 215.945 110.133 215.414 111.711C214.883 113.273 214.102 114.641 213.07 115.812C212.039 116.969 210.766 117.867 209.25 118.508C207.734 119.148 205.984 119.469 204 119.469C202.016 119.469 200.258 119.148 198.727 118.508C197.195 117.867 195.914 116.969 194.883 115.812C193.852 114.641 193.07 113.273 192.539 111.711C192.008 110.133 191.742 108.422 191.742 106.578ZM199.641 106.086V106.578C199.641 107.531 199.711 108.422 199.852 109.25C199.992 110.078 200.227 110.805 200.555 111.43C200.883 112.039 201.328 112.516 201.891 112.859C202.453 113.203 203.156 113.375 204 113.375C204.828 113.375 205.516 113.203 206.062 112.859C206.625 112.516 207.07 112.039 207.398 111.43C207.727 110.805 207.961 110.078 208.102 109.25C208.242 108.422 208.312 107.531 208.312 106.578V106.086C208.312 105.164 208.242 104.297 208.102 103.484C207.961 102.656 207.727 101.93 207.398 101.305C207.07 100.664 206.625 100.164 206.062 99.8047C205.5 99.4453 204.797 99.2656 203.953 99.2656C203.125 99.2656 202.43 99.4453 201.867 99.8047C201.32 100.164 200.883 100.664 200.555 101.305C200.227 101.93 199.992 102.656 199.852 103.484C199.711 104.297 199.641 105.164 199.641 106.086ZM227.133 116.023L233.695 93.6406H242.18L231.984 122.773C231.766 123.414 231.477 124.102 231.117 124.836C230.758 125.586 230.266 126.297 229.641 126.969C229.016 127.641 228.211 128.188 227.227 128.609C226.258 129.031 225.055 129.242 223.617 129.242C222.852 129.242 222.289 129.203 221.93 129.125C221.586 129.062 221.055 128.945 220.336 128.773V123.125C220.539 123.125 220.711 123.125 220.852 123.125C221.008 123.125 221.18 123.125 221.367 123.125C222.211 123.125 222.883 123.039 223.383 122.867C223.898 122.695 224.289 122.445 224.555 122.117C224.836 121.789 225.055 121.391 225.211 120.922L227.133 116.023ZM225.469 93.6406L230.461 111.383L231.328 119.75H226.031L217.008 93.6406H225.469ZM252.211 99.0078V119H244.312V93.6406H251.719L252.211 99.0078ZM251.25 105.453L249.445 105.5C249.445 103.719 249.656 102.078 250.078 100.578C250.5 99.0781 251.125 97.7734 251.953 96.6641C252.781 95.5547 253.797 94.6953 255 94.0859C256.219 93.4766 257.625 93.1719 259.219 93.1719C260.328 93.1719 261.336 93.3438 262.242 93.6875C263.148 94.0156 263.93 94.5391 264.586 95.2578C265.242 95.9609 265.742 96.8828 266.086 98.0234C266.445 99.1484 266.625 100.5 266.625 102.078V119H258.727V103.086C258.727 102.008 258.602 101.195 258.352 100.648C258.117 100.102 257.773 99.7344 257.32 99.5469C256.867 99.3594 256.312 99.2656 255.656 99.2656C254.969 99.2656 254.352 99.4219 253.805 99.7344C253.258 100.047 252.789 100.484 252.398 101.047C252.023 101.594 251.734 102.242 251.531 102.992C251.344 103.742 251.25 104.562 251.25 105.453ZM265.734 105.453L263.531 105.5C263.531 103.719 263.727 102.078 264.117 100.578C264.523 99.0781 265.125 97.7734 265.922 96.6641C266.734 95.5547 267.742 94.6953 268.945 94.0859C270.148 93.4766 271.547 93.1719 273.141 93.1719C274.297 93.1719 275.359 93.3438 276.328 93.6875C277.297 94.0312 278.133 94.5859 278.836 95.3516C279.539 96.1172 280.086 97.1328 280.477 98.3984C280.867 99.6484 281.062 101.195 281.062 103.039V119H273.141V103.039C273.141 101.992 273.016 101.203 272.766 100.672C272.531 100.125 272.188 99.7578 271.734 99.5703C271.281 99.3672 270.742 99.2656 270.117 99.2656C269.367 99.2656 268.719 99.4219 268.172 99.7344C267.625 100.047 267.164 100.484 266.789 101.047C266.43 101.594 266.164 102.242 265.992 102.992C265.82 103.742 265.734 104.562 265.734 105.453ZM297.867 119.469C295.805 119.469 293.961 119.148 292.336 118.508C290.711 117.852 289.336 116.953 288.211 115.812C287.102 114.672 286.25 113.359 285.656 111.875C285.078 110.391 284.789 108.82 284.789 107.164V106.273C284.789 104.414 285.047 102.695 285.562 101.117C286.078 99.5234 286.844 98.1328 287.859 96.9453C288.875 95.7578 290.148 94.8359 291.68 94.1797C293.211 93.5078 294.992 93.1719 297.023 93.1719C298.82 93.1719 300.43 93.4609 301.852 94.0391C303.273 94.6172 304.477 95.4453 305.461 96.5234C306.461 97.6016 307.219 98.9062 307.734 100.438C308.266 101.969 308.531 103.688 308.531 105.594V108.805H287.812V103.859H300.82V103.25C300.836 102.406 300.688 101.688 300.375 101.094C300.078 100.5 299.641 100.047 299.062 99.7344C298.484 99.4219 297.781 99.2656 296.953 99.2656C296.094 99.2656 295.383 99.4531 294.82 99.8281C294.273 100.203 293.844 100.719 293.531 101.375C293.234 102.016 293.023 102.758 292.898 103.602C292.773 104.445 292.711 105.336 292.711 106.273V107.164C292.711 108.102 292.836 108.953 293.086 109.719C293.352 110.484 293.727 111.141 294.211 111.688C294.711 112.219 295.305 112.633 295.992 112.93C296.695 113.227 297.492 113.375 298.383 113.375C299.461 113.375 300.523 113.172 301.57 112.766C302.617 112.359 303.516 111.688 304.266 110.75L307.852 115.016C307.336 115.75 306.602 116.461 305.648 117.148C304.711 117.836 303.586 118.398 302.273 118.836C300.961 119.258 299.492 119.469 297.867 119.469ZM319.5 99.0547V119H311.602V93.6406H319.008L319.5 99.0547ZM318.562 105.453L316.711 105.5C316.711 103.562 316.945 101.836 317.414 100.32C317.883 98.7891 318.547 97.4922 319.406 96.4297C320.266 95.3672 321.289 94.5625 322.477 94.0156C323.68 93.4531 325.016 93.1719 326.484 93.1719C327.656 93.1719 328.727 93.3438 329.695 93.6875C330.68 94.0312 331.523 94.5859 332.227 95.3516C332.945 96.1172 333.492 97.1328 333.867 98.3984C334.258 99.6484 334.453 101.195 334.453 103.039V119H326.508V103.016C326.508 102 326.367 101.227 326.086 100.695C325.805 100.148 325.398 99.7734 324.867 99.5703C324.336 99.3672 323.688 99.2656 322.922 99.2656C322.109 99.2656 321.422 99.4219 320.859 99.7344C320.297 100.047 319.844 100.484 319.5 101.047C319.172 101.594 318.93 102.242 318.773 102.992C318.633 103.742 318.562 104.562 318.562 105.453ZM352.195 93.6406V99.125H336.914V93.6406H352.195ZM340.125 87.3359H348.023V110.727C348.023 111.398 348.102 111.922 348.258 112.297C348.414 112.656 348.68 112.914 349.055 113.07C349.445 113.211 349.961 113.281 350.602 113.281C351.055 113.281 351.43 113.273 351.727 113.258C352.023 113.227 352.305 113.188 352.57 113.141V118.789C351.898 119.008 351.195 119.172 350.461 119.281C349.727 119.406 348.945 119.469 348.117 119.469C346.43 119.469 344.984 119.203 343.781 118.672C342.594 118.141 341.688 117.305 341.062 116.164C340.438 115.023 340.125 113.539 340.125 111.711V87.3359Z" fill="black"/>
<path d="M1134 0H1348C1356.28 0 1363 6.71573 1363 15V148C1363 156.284 1356.28 163 1348 163H1134V0Z" fill="#F9A43A"/>
<path d="M1212.5 117.5L1212.5 45.5L1284.5 45.5L1284.5 117.5L1212.5 117.5Z" fill="white" fill-opacity="0.01"/>
<path d="M1221.5 81.5125L1221.5 108.5L1275.5 108.5L1275.5 81.5" stroke="white" stroke-width="7.24" stroke-linecap="round" stroke-linejoin="round"/>
<path d="M1262 68L1248.5 54.5L1235 68" stroke="white" stroke-width="7.24" stroke-linecap="round" stroke-linejoin="round"/>
<path d="M1248.49 93.4999L1248.49 54.5" stroke="white" stroke-width="7.24" stroke-linecap="round" stroke-linejoin="round"/>
</svg>
