<svg width="1363" height="163" viewBox="0 0 1363 163" fill="none" xmlns="http://www.w3.org/2000/svg">
<path d="M0 15C0 6.71573 6.71573 0 15 0H37V163H15C6.71573 163 0 156.284 0 148V15Z" fill="#424242"/>
<rect width="1097" height="163" transform="translate(37)" fill="#F0F0F0"/>
<path d="M101.906 53.9219L94.3945 51.2383V48.0859L104.602 52.375V54.6367L101.906 53.9219ZM94.3945 56.1719L101.918 53.4297L104.602 52.7852V55.0352L94.3945 59.3242V56.1719ZM119.836 46.8555L115.195 61H111.457L117.797 43.9375H120.176L119.836 46.8555ZM123.691 61L119.039 46.8555L118.664 43.9375H121.066L127.441 61H123.691ZM123.48 54.6484V57.4023H114.469V54.6484H123.48ZM131.812 50.9453V61H128.426V48.3203H131.602L131.812 50.9453ZM131.344 54.2148H130.406C130.406 53.332 130.512 52.5195 130.723 51.7773C130.941 51.0273 131.258 50.3789 131.672 49.832C132.094 49.2773 132.613 48.8477 133.23 48.543C133.848 48.2383 134.562 48.0859 135.375 48.0859C135.938 48.0859 136.453 48.1719 136.922 48.3438C137.391 48.5078 137.793 48.7695 138.129 49.1289C138.473 49.4805 138.738 49.9414 138.926 50.5117C139.113 51.0742 139.207 51.75 139.207 52.5391V61H135.832V52.9141C135.832 52.3359 135.754 51.8906 135.598 51.5781C135.441 51.2656 135.219 51.0469 134.93 50.9219C134.648 50.7969 134.309 50.7344 133.91 50.7344C133.473 50.7344 133.09 50.8242 132.762 51.0039C132.441 51.1836 132.176 51.4336 131.965 51.7539C131.754 52.0664 131.598 52.4336 131.496 52.8555C131.395 53.2773 131.344 53.7305 131.344 54.2148ZM138.891 53.8281L137.684 53.9805C137.684 53.1523 137.785 52.3828 137.988 51.6719C138.199 50.9609 138.508 50.3359 138.914 49.7969C139.328 49.2578 139.84 48.8398 140.449 48.543C141.059 48.2383 141.762 48.0859 142.559 48.0859C143.168 48.0859 143.723 48.1758 144.223 48.3555C144.723 48.5273 145.148 48.8047 145.5 49.1875C145.859 49.5625 146.133 50.0547 146.32 50.6641C146.516 51.2734 146.613 52.0195 146.613 52.9023V61H143.227V52.9023C143.227 52.3164 143.148 51.8711 142.992 51.5664C142.844 51.2539 142.625 51.0391 142.336 50.9219C142.055 50.7969 141.719 50.7344 141.328 50.7344C140.922 50.7344 140.566 50.8164 140.262 50.9805C139.957 51.1367 139.703 51.3555 139.5 51.6367C139.297 51.918 139.145 52.2461 139.043 52.6211C138.941 52.9883 138.891 53.3906 138.891 53.8281ZM152.602 50.7578V65.875H149.227V48.3203H152.355L152.602 50.7578ZM160.629 54.5195V54.7656C160.629 55.6875 160.52 56.543 160.301 57.332C160.09 58.1211 159.777 58.8086 159.363 59.3945C158.949 59.9727 158.434 60.4258 157.816 60.7539C157.207 61.0742 156.504 61.2344 155.707 61.2344C154.934 61.2344 154.262 61.0781 153.691 60.7656C153.121 60.4531 152.641 60.0156 152.25 59.4531C151.867 58.8828 151.559 58.2227 151.324 57.4727C151.09 56.7227 150.91 55.918 150.785 55.0586V54.4141C150.91 53.4922 151.09 52.6484 151.324 51.8828C151.559 51.1094 151.867 50.4414 152.25 49.8789C152.641 49.3086 153.117 48.8672 153.68 48.5547C154.25 48.2422 154.918 48.0859 155.684 48.0859C156.488 48.0859 157.195 48.2383 157.805 48.543C158.422 48.8477 158.938 49.2852 159.352 49.8555C159.773 50.4258 160.09 51.1055 160.301 51.8945C160.52 52.6836 160.629 53.5586 160.629 54.5195ZM157.242 54.7656V54.5195C157.242 53.9805 157.195 53.4844 157.102 53.0312C157.016 52.5703 156.875 52.168 156.68 51.8242C156.492 51.4805 156.242 51.2148 155.93 51.0273C155.625 50.832 155.254 50.7344 154.816 50.7344C154.355 50.7344 153.961 50.8086 153.633 50.957C153.312 51.1055 153.051 51.3203 152.848 51.6016C152.645 51.8828 152.492 52.2188 152.391 52.6094C152.289 53 152.227 53.4414 152.203 53.9336V55.5625C152.242 56.1406 152.352 56.6602 152.531 57.1211C152.711 57.5742 152.988 57.9336 153.363 58.1992C153.738 58.4648 154.23 58.5977 154.84 58.5977C155.285 58.5977 155.66 58.5 155.965 58.3047C156.27 58.1016 156.516 57.8242 156.703 57.4727C156.898 57.1211 157.035 56.7148 157.113 56.2539C157.199 55.793 157.242 55.2969 157.242 54.7656ZM172.652 43.9375V61H169.148V43.9375H172.652ZM179.039 51.0273V61H175.664V48.3203H178.828L179.039 51.0273ZM178.547 54.2148H177.633C177.633 53.2773 177.754 52.4336 177.996 51.6836C178.238 50.9258 178.578 50.2812 179.016 49.75C179.453 49.2109 179.973 48.8008 180.574 48.5195C181.184 48.2305 181.863 48.0859 182.613 48.0859C183.207 48.0859 183.75 48.1719 184.242 48.3438C184.734 48.5156 185.156 48.7891 185.508 49.1641C185.867 49.5391 186.141 50.0352 186.328 50.6523C186.523 51.2695 186.621 52.0234 186.621 52.9141V61H183.223V52.9023C183.223 52.3398 183.145 51.9023 182.988 51.5898C182.832 51.2773 182.602 51.0586 182.297 50.9336C182 50.8008 181.633 50.7344 181.195 50.7344C180.742 50.7344 180.348 50.8242 180.012 51.0039C179.684 51.1836 179.41 51.4336 179.191 51.7539C178.98 52.0664 178.82 52.4336 178.711 52.8555C178.602 53.2773 178.547 53.7305 178.547 54.2148ZM195.398 48.3203V50.7109H188.016V48.3203H195.398ZM189.844 45.1914H193.219V57.1797C193.219 57.5469 193.266 57.8281 193.359 58.0234C193.461 58.2188 193.609 58.3555 193.805 58.4336C194 58.5039 194.246 58.5391 194.543 58.5391C194.754 58.5391 194.941 58.5312 195.105 58.5156C195.277 58.4922 195.422 58.4688 195.539 58.4453L195.551 60.9297C195.262 61.0234 194.949 61.0977 194.613 61.1523C194.277 61.207 193.906 61.2344 193.5 61.2344C192.758 61.2344 192.109 61.1133 191.555 60.8711C191.008 60.6211 190.586 60.2227 190.289 59.6758C189.992 59.1289 189.844 58.4102 189.844 57.5195V45.1914ZM203.156 61.2344C202.172 61.2344 201.289 61.0781 200.508 60.7656C199.727 60.4453 199.062 60.0039 198.516 59.4414C197.977 58.8789 197.562 58.2266 197.273 57.4844C196.984 56.7344 196.84 55.9375 196.84 55.0938V54.625C196.84 53.6641 196.977 52.7852 197.25 51.9883C197.523 51.1914 197.914 50.5 198.422 49.9141C198.938 49.3281 199.562 48.8789 200.297 48.5664C201.031 48.2461 201.859 48.0859 202.781 48.0859C203.68 48.0859 204.477 48.2344 205.172 48.5312C205.867 48.8281 206.449 49.25 206.918 49.7969C207.395 50.3438 207.754 51 207.996 51.7656C208.238 52.5234 208.359 53.3672 208.359 54.2969V55.7031H198.281V53.4531H205.043V53.1953C205.043 52.7266 204.957 52.3086 204.785 51.9414C204.621 51.5664 204.371 51.2695 204.035 51.0508C203.699 50.832 203.27 50.7227 202.746 50.7227C202.301 50.7227 201.918 50.8203 201.598 51.0156C201.277 51.2109 201.016 51.4844 200.812 51.8359C200.617 52.1875 200.469 52.6016 200.367 53.0781C200.273 53.5469 200.227 54.0625 200.227 54.625V55.0938C200.227 55.6016 200.297 56.0703 200.438 56.5C200.586 56.9297 200.793 57.3008 201.059 57.6133C201.332 57.9258 201.66 58.168 202.043 58.3398C202.434 58.5117 202.875 58.5977 203.367 58.5977C203.977 58.5977 204.543 58.4805 205.066 58.2461C205.598 58.0039 206.055 57.6406 206.438 57.1562L208.078 58.9375C207.812 59.3203 207.449 59.6875 206.988 60.0391C206.535 60.3906 205.988 60.6797 205.348 60.9062C204.707 61.125 203.977 61.2344 203.156 61.2344ZM213.844 43V61H210.457V43H213.844ZM220.195 43V61H216.809V43H220.195ZM226.547 48.3203V61H223.16V48.3203H226.547ZM222.949 45.0156C222.949 44.5234 223.121 44.1172 223.465 43.7969C223.809 43.4766 224.27 43.3164 224.848 43.3164C225.418 43.3164 225.875 43.4766 226.219 43.7969C226.57 44.1172 226.746 44.5234 226.746 45.0156C226.746 45.5078 226.57 45.9141 226.219 46.2344C225.875 46.5547 225.418 46.7148 224.848 46.7148C224.27 46.7148 223.809 46.5547 223.465 46.2344C223.121 45.9141 222.949 45.5078 222.949 45.0156ZM237.363 48.3203H240.422V60.5781C240.422 61.7344 240.164 62.7148 239.648 63.5195C239.141 64.332 238.43 64.9453 237.516 65.3594C236.602 65.7812 235.539 65.9922 234.328 65.9922C233.797 65.9922 233.234 65.9219 232.641 65.7812C232.055 65.6406 231.492 65.4219 230.953 65.125C230.422 64.8281 229.977 64.4531 229.617 64L231.105 62.0078C231.496 62.4609 231.949 62.8125 232.465 63.0625C232.98 63.3203 233.551 63.4492 234.176 63.4492C234.785 63.4492 235.301 63.3359 235.723 63.1094C236.145 62.8906 236.469 62.5664 236.695 62.1367C236.922 61.7148 237.035 61.2031 237.035 60.6016V51.25L237.363 48.3203ZM228.832 54.8125V54.5664C228.832 53.5977 228.949 52.7188 229.184 51.9297C229.426 51.1328 229.766 50.4492 230.203 49.8789C230.648 49.3086 231.188 48.8672 231.82 48.5547C232.453 48.2422 233.168 48.0859 233.965 48.0859C234.809 48.0859 235.516 48.2422 236.086 48.5547C236.656 48.8672 237.125 49.3125 237.492 49.8906C237.859 50.4609 238.145 51.1367 238.348 51.918C238.559 52.6914 238.723 53.5391 238.84 54.4609V55C238.723 55.8828 238.547 56.7031 238.312 57.4609C238.078 58.2188 237.77 58.8828 237.387 59.4531C237.004 60.0156 236.527 60.4531 235.957 60.7656C235.395 61.0781 234.723 61.2344 233.941 61.2344C233.16 61.2344 232.453 61.0742 231.82 60.7539C231.195 60.4336 230.66 59.9844 230.215 59.4062C229.77 58.8281 229.426 58.1484 229.184 57.3672C228.949 56.5859 228.832 55.7344 228.832 54.8125ZM232.207 54.5664V54.8125C232.207 55.3359 232.258 55.8242 232.359 56.2773C232.461 56.7305 232.617 57.1328 232.828 57.4844C233.047 57.8281 233.316 58.0977 233.637 58.293C233.965 58.4805 234.352 58.5742 234.797 58.5742C235.414 58.5742 235.918 58.4453 236.309 58.1875C236.699 57.9219 236.992 57.5586 237.188 57.0977C237.383 56.6367 237.496 56.1055 237.527 55.5039V53.9688C237.512 53.4766 237.445 53.0352 237.328 52.6445C237.211 52.2461 237.047 51.9062 236.836 51.625C236.625 51.3438 236.352 51.125 236.016 50.9688C235.68 50.8125 235.281 50.7344 234.82 50.7344C234.375 50.7344 233.988 50.8359 233.66 51.0391C233.34 51.2344 233.07 51.5039 232.852 51.8477C232.641 52.1914 232.48 52.5977 232.371 53.0664C232.262 53.5273 232.207 54.0273 232.207 54.5664ZM248.883 61.2344C247.898 61.2344 247.016 61.0781 246.234 60.7656C245.453 60.4453 244.789 60.0039 244.242 59.4414C243.703 58.8789 243.289 58.2266 243 57.4844C242.711 56.7344 242.566 55.9375 242.566 55.0938V54.625C242.566 53.6641 242.703 52.7852 242.977 51.9883C243.25 51.1914 243.641 50.5 244.148 49.9141C244.664 49.3281 245.289 48.8789 246.023 48.5664C246.758 48.2461 247.586 48.0859 248.508 48.0859C249.406 48.0859 250.203 48.2344 250.898 48.5312C251.594 48.8281 252.176 49.25 252.645 49.7969C253.121 50.3438 253.48 51 253.723 51.7656C253.965 52.5234 254.086 53.3672 254.086 54.2969V55.7031H244.008V53.4531H250.77V53.1953C250.77 52.7266 250.684 52.3086 250.512 51.9414C250.348 51.5664 250.098 51.2695 249.762 51.0508C249.426 50.832 248.996 50.7227 248.473 50.7227C248.027 50.7227 247.645 50.8203 247.324 51.0156C247.004 51.2109 246.742 51.4844 246.539 51.8359C246.344 52.1875 246.195 52.6016 246.094 53.0781C246 53.5469 245.953 54.0625 245.953 54.625V55.0938C245.953 55.6016 246.023 56.0703 246.164 56.5C246.312 56.9297 246.52 57.3008 246.785 57.6133C247.059 57.9258 247.387 58.168 247.77 58.3398C248.16 58.5117 248.602 58.5977 249.094 58.5977C249.703 58.5977 250.27 58.4805 250.793 58.2461C251.324 58.0039 251.781 57.6406 252.164 57.1562L253.805 58.9375C253.539 59.3203 253.176 59.6875 252.715 60.0391C252.262 60.3906 251.715 60.6797 251.074 60.9062C250.434 61.125 249.703 61.2344 248.883 61.2344ZM259.312 51.0273V61H255.938V48.3203H259.102L259.312 51.0273ZM258.82 54.2148H257.906C257.906 53.2773 258.027 52.4336 258.27 51.6836C258.512 50.9258 258.852 50.2812 259.289 49.75C259.727 49.2109 260.246 48.8008 260.848 48.5195C261.457 48.2305 262.137 48.0859 262.887 48.0859C263.48 48.0859 264.023 48.1719 264.516 48.3438C265.008 48.5156 265.43 48.7891 265.781 49.1641C266.141 49.5391 266.414 50.0352 266.602 50.6523C266.797 51.2695 266.895 52.0234 266.895 52.9141V61H263.496V52.9023C263.496 52.3398 263.418 51.9023 263.262 51.5898C263.105 51.2773 262.875 51.0586 262.57 50.9336C262.273 50.8008 261.906 50.7344 261.469 50.7344C261.016 50.7344 260.621 50.8242 260.285 51.0039C259.957 51.1836 259.684 51.4336 259.465 51.7539C259.254 52.0664 259.094 52.4336 258.984 52.8555C258.875 53.2773 258.82 53.7305 258.82 54.2148ZM274.699 58.5977C275.113 58.5977 275.48 58.5195 275.801 58.3633C276.121 58.1992 276.371 57.9727 276.551 57.6836C276.738 57.3867 276.836 57.0391 276.844 56.6406H280.02C280.012 57.5312 279.773 58.3242 279.305 59.0195C278.836 59.707 278.207 60.25 277.418 60.6484C276.629 61.0391 275.746 61.2344 274.77 61.2344C273.785 61.2344 272.926 61.0703 272.191 60.7422C271.465 60.4141 270.859 59.9609 270.375 59.3828C269.891 58.7969 269.527 58.1172 269.285 57.3438C269.043 56.5625 268.922 55.7266 268.922 54.8359V54.4961C268.922 53.5977 269.043 52.7617 269.285 51.9883C269.527 51.207 269.891 50.5273 270.375 49.9492C270.859 49.3633 271.465 48.9062 272.191 48.5781C272.918 48.25 273.77 48.0859 274.746 48.0859C275.785 48.0859 276.695 48.2852 277.477 48.6836C278.266 49.082 278.883 49.6523 279.328 50.3945C279.781 51.1289 280.012 52 280.02 53.0078H276.844C276.836 52.5859 276.746 52.2031 276.574 51.8594C276.41 51.5156 276.168 51.2422 275.848 51.0391C275.535 50.8281 275.148 50.7227 274.688 50.7227C274.195 50.7227 273.793 50.8281 273.48 51.0391C273.168 51.2422 272.926 51.5234 272.754 51.8828C272.582 52.2344 272.461 52.6367 272.391 53.0898C272.328 53.5352 272.297 54.0039 272.297 54.4961V54.8359C272.297 55.3281 272.328 55.8008 272.391 56.2539C272.453 56.707 272.57 57.1094 272.742 57.4609C272.922 57.8125 273.168 58.0898 273.48 58.293C273.793 58.4961 274.199 58.5977 274.699 58.5977ZM287.812 61.2344C286.828 61.2344 285.945 61.0781 285.164 60.7656C284.383 60.4453 283.719 60.0039 283.172 59.4414C282.633 58.8789 282.219 58.2266 281.93 57.4844C281.641 56.7344 281.496 55.9375 281.496 55.0938V54.625C281.496 53.6641 281.633 52.7852 281.906 51.9883C282.18 51.1914 282.57 50.5 283.078 49.9141C283.594 49.3281 284.219 48.8789 284.953 48.5664C285.688 48.2461 286.516 48.0859 287.438 48.0859C288.336 48.0859 289.133 48.2344 289.828 48.5312C290.523 48.8281 291.105 49.25 291.574 49.7969C292.051 50.3438 292.41 51 292.652 51.7656C292.895 52.5234 293.016 53.3672 293.016 54.2969V55.7031H282.938V53.4531H289.699V53.1953C289.699 52.7266 289.613 52.3086 289.441 51.9414C289.277 51.5664 289.027 51.2695 288.691 51.0508C288.355 50.832 287.926 50.7227 287.402 50.7227C286.957 50.7227 286.574 50.8203 286.254 51.0156C285.934 51.2109 285.672 51.4844 285.469 51.8359C285.273 52.1875 285.125 52.6016 285.023 53.0781C284.93 53.5469 284.883 54.0625 284.883 54.625V55.0938C284.883 55.6016 284.953 56.0703 285.094 56.5C285.242 56.9297 285.449 57.3008 285.715 57.6133C285.988 57.9258 286.316 58.168 286.699 58.3398C287.09 58.5117 287.531 58.5977 288.023 58.5977C288.633 58.5977 289.199 58.4805 289.723 58.2461C290.254 58.0039 290.711 57.6406 291.094 57.1562L292.734 58.9375C292.469 59.3203 292.105 59.6875 291.645 60.0391C291.191 60.3906 290.645 60.6797 290.004 60.9062C289.363 61.125 288.633 61.2344 287.812 61.2344Z" fill="#888888"/>
<path d="M114.117 84.875H122.344V107.164C122.344 109.82 121.789 112.07 120.68 113.914C119.57 115.742 118.016 117.125 116.016 118.062C114.016 119 111.664 119.469 108.961 119.469C106.289 119.469 103.938 119 101.906 118.062C99.8906 117.125 98.3125 115.742 97.1719 113.914C96.0469 112.07 95.4844 109.82 95.4844 107.164V84.875H103.734V107.164C103.734 108.57 103.938 109.719 104.344 110.609C104.75 111.484 105.344 112.125 106.125 112.531C106.906 112.938 107.852 113.141 108.961 113.141C110.086 113.141 111.031 112.938 111.797 112.531C112.562 112.125 113.141 111.484 113.531 110.609C113.922 109.719 114.117 108.57 114.117 107.164V84.875ZM134.906 99.0547V119H127.008V93.6406H134.414L134.906 99.0547ZM133.969 105.453L132.117 105.5C132.117 103.562 132.352 101.836 132.82 100.32C133.289 98.7891 133.953 97.4922 134.812 96.4297C135.672 95.3672 136.695 94.5625 137.883 94.0156C139.086 93.4531 140.422 93.1719 141.891 93.1719C143.062 93.1719 144.133 93.3438 145.102 93.6875C146.086 94.0312 146.93 94.5859 147.633 95.3516C148.352 96.1172 148.898 97.1328 149.273 98.3984C149.664 99.6484 149.859 101.195 149.859 103.039V119H141.914V103.016C141.914 102 141.773 101.227 141.492 100.695C141.211 100.148 140.805 99.7734 140.273 99.5703C139.742 99.3672 139.094 99.2656 138.328 99.2656C137.516 99.2656 136.828 99.4219 136.266 99.7344C135.703 100.047 135.25 100.484 134.906 101.047C134.578 101.594 134.336 102.242 134.18 102.992C134.039 103.742 133.969 104.562 133.969 105.453ZM162.586 93.6406V119H154.664V93.6406H162.586ZM154.195 87.1016C154.195 85.9766 154.602 85.0547 155.414 84.3359C156.227 83.6172 157.281 83.2578 158.578 83.2578C159.875 83.2578 160.93 83.6172 161.742 84.3359C162.555 85.0547 162.961 85.9766 162.961 87.1016C162.961 88.2266 162.555 89.1484 161.742 89.8672C160.93 90.5859 159.875 90.9453 158.578 90.9453C157.281 90.9453 156.227 90.5859 155.414 89.8672C154.602 89.1484 154.195 88.2266 154.195 87.1016ZM180.82 93.6406V99.125H165.539V93.6406H180.82ZM168.75 87.3359H176.648V110.727C176.648 111.398 176.727 111.922 176.883 112.297C177.039 112.656 177.305 112.914 177.68 113.07C178.07 113.211 178.586 113.281 179.227 113.281C179.68 113.281 180.055 113.273 180.352 113.258C180.648 113.227 180.93 113.188 181.195 113.141V118.789C180.523 119.008 179.82 119.172 179.086 119.281C178.352 119.406 177.57 119.469 176.742 119.469C175.055 119.469 173.609 119.203 172.406 118.672C171.219 118.141 170.312 117.305 169.688 116.164C169.062 115.023 168.75 113.539 168.75 111.711V87.3359ZM211.406 84.875V119H203.18V84.875H211.406ZM221.672 84.875V91.2266H193.148V84.875H221.672ZM234.961 119.469C232.898 119.469 231.055 119.148 229.43 118.508C227.805 117.852 226.43 116.953 225.305 115.812C224.195 114.672 223.344 113.359 222.75 111.875C222.172 110.391 221.883 108.82 221.883 107.164V106.273C221.883 104.414 222.141 102.695 222.656 101.117C223.172 99.5234 223.938 98.1328 224.953 96.9453C225.969 95.7578 227.242 94.8359 228.773 94.1797C230.305 93.5078 232.086 93.1719 234.117 93.1719C235.914 93.1719 237.523 93.4609 238.945 94.0391C240.367 94.6172 241.57 95.4453 242.555 96.5234C243.555 97.6016 244.312 98.9062 244.828 100.438C245.359 101.969 245.625 103.688 245.625 105.594V108.805H224.906V103.859H237.914V103.25C237.93 102.406 237.781 101.688 237.469 101.094C237.172 100.5 236.734 100.047 236.156 99.7344C235.578 99.4219 234.875 99.2656 234.047 99.2656C233.188 99.2656 232.477 99.4531 231.914 99.8281C231.367 100.203 230.938 100.719 230.625 101.375C230.328 102.016 230.117 102.758 229.992 103.602C229.867 104.445 229.805 105.336 229.805 106.273V107.164C229.805 108.102 229.93 108.953 230.18 109.719C230.445 110.484 230.82 111.141 231.305 111.688C231.805 112.219 232.398 112.633 233.086 112.93C233.789 113.227 234.586 113.375 235.477 113.375C236.555 113.375 237.617 113.172 238.664 112.766C239.711 112.359 240.609 111.688 241.359 110.75L244.945 115.016C244.43 115.75 243.695 116.461 242.742 117.148C241.805 117.836 240.68 118.398 239.367 118.836C238.055 119.258 236.586 119.469 234.961 119.469ZM262.125 111.875C262.125 111.438 261.977 111.062 261.68 110.75C261.398 110.422 260.898 110.125 260.18 109.859C259.461 109.578 258.453 109.297 257.156 109.016C255.922 108.75 254.758 108.398 253.664 107.961C252.586 107.523 251.641 106.992 250.828 106.367C250.016 105.742 249.375 105 248.906 104.141C248.453 103.281 248.227 102.297 248.227 101.188C248.227 100.109 248.453 99.0938 248.906 98.1406C249.375 97.1719 250.055 96.3203 250.945 95.5859C251.852 94.8359 252.953 94.25 254.25 93.8281C255.547 93.3906 257.023 93.1719 258.68 93.1719C260.961 93.1719 262.93 93.5234 264.586 94.2266C266.242 94.9141 267.516 95.8828 268.406 97.1328C269.312 98.3672 269.766 99.7969 269.766 101.422H261.867C261.867 100.781 261.758 100.234 261.539 99.7812C261.336 99.3281 261 98.9844 260.531 98.75C260.062 98.5 259.438 98.375 258.656 98.375C258.109 98.375 257.609 98.4766 257.156 98.6797C256.719 98.8828 256.367 99.1641 256.102 99.5234C255.836 99.8828 255.703 100.305 255.703 100.789C255.703 101.133 255.781 101.445 255.938 101.727C256.109 101.992 256.367 102.242 256.711 102.477C257.055 102.695 257.492 102.898 258.023 103.086C258.555 103.258 259.195 103.414 259.945 103.555C261.648 103.867 263.242 104.312 264.727 104.891C266.211 105.469 267.414 106.289 268.336 107.352C269.273 108.414 269.742 109.844 269.742 111.641C269.742 112.766 269.484 113.805 268.969 114.758C268.453 115.695 267.711 116.523 266.742 117.242C265.773 117.945 264.609 118.492 263.25 118.883C261.891 119.273 260.359 119.469 258.656 119.469C256.234 119.469 254.188 119.039 252.516 118.18C250.844 117.305 249.578 116.211 248.719 114.898C247.875 113.57 247.453 112.227 247.453 110.867H254.812C254.844 111.648 255.031 112.289 255.375 112.789C255.734 113.289 256.211 113.656 256.805 113.891C257.398 114.125 258.086 114.242 258.867 114.242C259.586 114.242 260.18 114.141 260.648 113.938C261.133 113.734 261.5 113.461 261.75 113.117C262 112.758 262.125 112.344 262.125 111.875ZM286.805 93.6406V99.125H271.523V93.6406H286.805ZM274.734 87.3359H282.633V110.727C282.633 111.398 282.711 111.922 282.867 112.297C283.023 112.656 283.289 112.914 283.664 113.07C284.055 113.211 284.57 113.281 285.211 113.281C285.664 113.281 286.039 113.273 286.336 113.258C286.633 113.227 286.914 113.188 287.18 113.141V118.789C286.508 119.008 285.805 119.172 285.07 119.281C284.336 119.406 283.555 119.469 282.727 119.469C281.039 119.469 279.594 119.203 278.391 118.672C277.203 118.141 276.297 117.305 275.672 116.164C275.047 115.023 274.734 113.539 274.734 111.711V87.3359ZM298.289 93.6406V119H290.367V93.6406H298.289ZM289.898 87.1016C289.898 85.9766 290.305 85.0547 291.117 84.3359C291.93 83.6172 292.984 83.2578 294.281 83.2578C295.578 83.2578 296.633 83.6172 297.445 84.3359C298.258 85.0547 298.664 85.9766 298.664 87.1016C298.664 88.2266 298.258 89.1484 297.445 89.8672C296.633 90.5859 295.578 90.9453 294.281 90.9453C292.984 90.9453 291.93 90.5859 291.117 89.8672C290.305 89.1484 289.898 88.2266 289.898 87.1016ZM310.922 99.0547V119H303.023V93.6406H310.43L310.922 99.0547ZM309.984 105.453L308.133 105.5C308.133 103.562 308.367 101.836 308.836 100.32C309.305 98.7891 309.969 97.4922 310.828 96.4297C311.688 95.3672 312.711 94.5625 313.898 94.0156C315.102 93.4531 316.438 93.1719 317.906 93.1719C319.078 93.1719 320.148 93.3438 321.117 93.6875C322.102 94.0312 322.945 94.5859 323.648 95.3516C324.367 96.1172 324.914 97.1328 325.289 98.3984C325.68 99.6484 325.875 101.195 325.875 103.039V119H317.93V103.016C317.93 102 317.789 101.227 317.508 100.695C317.227 100.148 316.82 99.7734 316.289 99.5703C315.758 99.3672 315.109 99.2656 314.344 99.2656C313.531 99.2656 312.844 99.4219 312.281 99.7344C311.719 100.047 311.266 100.484 310.922 101.047C310.594 101.594 310.352 102.242 310.195 102.992C310.055 103.742 309.984 104.562 309.984 105.453ZM346.195 93.6406H353.367V118.016C353.367 120.359 352.828 122.344 351.75 123.969C350.672 125.609 349.164 126.852 347.227 127.695C345.305 128.555 343.055 128.984 340.477 128.984C339.336 128.984 338.172 128.836 336.984 128.539C335.797 128.258 334.688 127.836 333.656 127.273C332.625 126.711 331.758 126.016 331.055 125.188L334.359 120.547C335 121.266 335.805 121.875 336.773 122.375C337.742 122.891 338.883 123.148 340.195 123.148C341.336 123.148 342.289 122.945 343.055 122.539C343.836 122.133 344.43 121.539 344.836 120.758C345.242 119.992 345.445 119.062 345.445 117.969V99.6406L346.195 93.6406ZM329.344 106.625V106.133C329.344 104.211 329.578 102.461 330.047 100.883C330.531 99.2891 331.219 97.9219 332.109 96.7812C333.016 95.625 334.109 94.7344 335.391 94.1094C336.672 93.4844 338.117 93.1719 339.727 93.1719C341.461 93.1719 342.883 93.5078 343.992 94.1797C345.117 94.8359 346.016 95.7578 346.688 96.9453C347.375 98.1328 347.906 99.5234 348.281 101.117C348.672 102.695 349 104.398 349.266 106.227V106.812C349 108.531 348.633 110.156 348.164 111.688C347.711 113.203 347.117 114.547 346.383 115.719C345.648 116.891 344.727 117.812 343.617 118.484C342.523 119.141 341.211 119.469 339.68 119.469C338.086 119.469 336.648 119.148 335.367 118.508C334.102 117.867 333.016 116.969 332.109 115.812C331.219 114.656 330.531 113.297 330.047 111.734C329.578 110.172 329.344 108.469 329.344 106.625ZM337.242 106.133V106.625C337.242 107.578 337.328 108.461 337.5 109.273C337.688 110.086 337.969 110.805 338.344 111.43C338.719 112.039 339.18 112.516 339.727 112.859C340.289 113.203 340.945 113.375 341.695 113.375C342.836 113.375 343.758 113.133 344.461 112.648C345.164 112.164 345.672 111.477 345.984 110.586C346.297 109.695 346.43 108.648 346.383 107.445V105.594C346.414 104.562 346.344 103.656 346.172 102.875C346 102.078 345.727 101.414 345.352 100.883C344.992 100.352 344.508 99.9531 343.898 99.6875C343.305 99.4062 342.586 99.2656 341.742 99.2656C341.008 99.2656 340.359 99.4375 339.797 99.7812C339.234 100.125 338.766 100.609 338.391 101.234C338.016 101.844 337.727 102.57 337.523 103.414C337.336 104.242 337.242 105.148 337.242 106.133Z" fill="black"/>
<path d="M1134 0H1348C1356.28 0 1363 6.71573 1363 15V148C1363 156.284 1356.28 163 1348 163H1134V0Z" fill="#F9A43A"/>
<path d="M1210.62 43.625H1286.38V119.375H1210.62V43.625Z" fill="white" fill-opacity="0.01"/>
<path d="M1276.91 72.0312V105.172C1276.91 107.787 1274.79 109.906 1272.17 109.906H1224.83C1222.21 109.906 1220.09 107.787 1220.09 105.172V57.8281C1220.09 55.2134 1222.21 53.0938 1224.83 53.0938H1261.12" stroke="white" stroke-width="7.24" stroke-linecap="round" stroke-linejoin="round"/>
<path d="M1232.72 75.1875L1248.5 87.8125L1276.91 53.0938" stroke="white" stroke-width="7.24" stroke-linecap="round" stroke-linejoin="round"/>
</svg>
