<svg width="1363" height="163" viewBox="0 0 1363 163" fill="none" xmlns="http://www.w3.org/2000/svg">
<path d="M0 15C0 6.71573 6.71573 0 15 0H37V163H15C6.71573 163 0 156.284 0 148V15Z" fill="#424242"/>
<rect width="1097" height="163" transform="translate(37)" fill="#F0F0F0"/>
<path d="M101.906 53.9219L94.3945 51.2383V48.0859L104.602 52.375V54.6367L101.906 53.9219ZM94.3945 56.1719L101.918 53.4297L104.602 52.7852V55.0352L94.3945 59.3242V56.1719ZM119.836 46.8555L115.195 61H111.457L117.797 43.9375H120.176L119.836 46.8555ZM123.691 61L119.039 46.8555L118.664 43.9375H121.066L127.441 61H123.691ZM123.48 54.6484V57.4023H114.469V54.6484H123.48ZM131.812 50.9453V61H128.426V48.3203H131.602L131.812 50.9453ZM131.344 54.2148H130.406C130.406 53.332 130.512 52.5195 130.723 51.7773C130.941 51.0273 131.258 50.3789 131.672 49.832C132.094 49.2773 132.613 48.8477 133.23 48.543C133.848 48.2383 134.562 48.0859 135.375 48.0859C135.938 48.0859 136.453 48.1719 136.922 48.3438C137.391 48.5078 137.793 48.7695 138.129 49.1289C138.473 49.4805 138.738 49.9414 138.926 50.5117C139.113 51.0742 139.207 51.75 139.207 52.5391V61H135.832V52.9141C135.832 52.3359 135.754 51.8906 135.598 51.5781C135.441 51.2656 135.219 51.0469 134.93 50.9219C134.648 50.7969 134.309 50.7344 133.91 50.7344C133.473 50.7344 133.09 50.8242 132.762 51.0039C132.441 51.1836 132.176 51.4336 131.965 51.7539C131.754 52.0664 131.598 52.4336 131.496 52.8555C131.395 53.2773 131.344 53.7305 131.344 54.2148ZM138.891 53.8281L137.684 53.9805C137.684 53.1523 137.785 52.3828 137.988 51.6719C138.199 50.9609 138.508 50.3359 138.914 49.7969C139.328 49.2578 139.84 48.8398 140.449 48.543C141.059 48.2383 141.762 48.0859 142.559 48.0859C143.168 48.0859 143.723 48.1758 144.223 48.3555C144.723 48.5273 145.148 48.8047 145.5 49.1875C145.859 49.5625 146.133 50.0547 146.32 50.6641C146.516 51.2734 146.613 52.0195 146.613 52.9023V61H143.227V52.9023C143.227 52.3164 143.148 51.8711 142.992 51.5664C142.844 51.2539 142.625 51.0391 142.336 50.9219C142.055 50.7969 141.719 50.7344 141.328 50.7344C140.922 50.7344 140.566 50.8164 140.262 50.9805C139.957 51.1367 139.703 51.3555 139.5 51.6367C139.297 51.918 139.145 52.2461 139.043 52.6211C138.941 52.9883 138.891 53.3906 138.891 53.8281ZM152.602 50.7578V65.875H149.227V48.3203H152.355L152.602 50.7578ZM160.629 54.5195V54.7656C160.629 55.6875 160.52 56.543 160.301 57.332C160.09 58.1211 159.777 58.8086 159.363 59.3945C158.949 59.9727 158.434 60.4258 157.816 60.7539C157.207 61.0742 156.504 61.2344 155.707 61.2344C154.934 61.2344 154.262 61.0781 153.691 60.7656C153.121 60.4531 152.641 60.0156 152.25 59.4531C151.867 58.8828 151.559 58.2227 151.324 57.4727C151.09 56.7227 150.91 55.918 150.785 55.0586V54.4141C150.91 53.4922 151.09 52.6484 151.324 51.8828C151.559 51.1094 151.867 50.4414 152.25 49.8789C152.641 49.3086 153.117 48.8672 153.68 48.5547C154.25 48.2422 154.918 48.0859 155.684 48.0859C156.488 48.0859 157.195 48.2383 157.805 48.543C158.422 48.8477 158.938 49.2852 159.352 49.8555C159.773 50.4258 160.09 51.1055 160.301 51.8945C160.52 52.6836 160.629 53.5586 160.629 54.5195ZM157.242 54.7656V54.5195C157.242 53.9805 157.195 53.4844 157.102 53.0312C157.016 52.5703 156.875 52.168 156.68 51.8242C156.492 51.4805 156.242 51.2148 155.93 51.0273C155.625 50.832 155.254 50.7344 154.816 50.7344C154.355 50.7344 153.961 50.8086 153.633 50.957C153.312 51.1055 153.051 51.3203 152.848 51.6016C152.645 51.8828 152.492 52.2188 152.391 52.6094C152.289 53 152.227 53.4414 152.203 53.9336V55.5625C152.242 56.1406 152.352 56.6602 152.531 57.1211C152.711 57.5742 152.988 57.9336 153.363 58.1992C153.738 58.4648 154.23 58.5977 154.84 58.5977C155.285 58.5977 155.66 58.5 155.965 58.3047C156.27 58.1016 156.516 57.8242 156.703 57.4727C156.898 57.1211 157.035 56.7148 157.113 56.2539C157.199 55.793 157.242 55.2969 157.242 54.7656ZM172.652 43.9375V61H169.148V43.9375H172.652ZM179.039 51.0273V61H175.664V48.3203H178.828L179.039 51.0273ZM178.547 54.2148H177.633C177.633 53.2773 177.754 52.4336 177.996 51.6836C178.238 50.9258 178.578 50.2812 179.016 49.75C179.453 49.2109 179.973 48.8008 180.574 48.5195C181.184 48.2305 181.863 48.0859 182.613 48.0859C183.207 48.0859 183.75 48.1719 184.242 48.3438C184.734 48.5156 185.156 48.7891 185.508 49.1641C185.867 49.5391 186.141 50.0352 186.328 50.6523C186.523 51.2695 186.621 52.0234 186.621 52.9141V61H183.223V52.9023C183.223 52.3398 183.145 51.9023 182.988 51.5898C182.832 51.2773 182.602 51.0586 182.297 50.9336C182 50.8008 181.633 50.7344 181.195 50.7344C180.742 50.7344 180.348 50.8242 180.012 51.0039C179.684 51.1836 179.41 51.4336 179.191 51.7539C178.98 52.0664 178.82 52.4336 178.711 52.8555C178.602 53.2773 178.547 53.7305 178.547 54.2148ZM195.398 48.3203V50.7109H188.016V48.3203H195.398ZM189.844 45.1914H193.219V57.1797C193.219 57.5469 193.266 57.8281 193.359 58.0234C193.461 58.2188 193.609 58.3555 193.805 58.4336C194 58.5039 194.246 58.5391 194.543 58.5391C194.754 58.5391 194.941 58.5312 195.105 58.5156C195.277 58.4922 195.422 58.4688 195.539 58.4453L195.551 60.9297C195.262 61.0234 194.949 61.0977 194.613 61.1523C194.277 61.207 193.906 61.2344 193.5 61.2344C192.758 61.2344 192.109 61.1133 191.555 60.8711C191.008 60.6211 190.586 60.2227 190.289 59.6758C189.992 59.1289 189.844 58.4102 189.844 57.5195V45.1914ZM203.156 61.2344C202.172 61.2344 201.289 61.0781 200.508 60.7656C199.727 60.4453 199.062 60.0039 198.516 59.4414C197.977 58.8789 197.562 58.2266 197.273 57.4844C196.984 56.7344 196.84 55.9375 196.84 55.0938V54.625C196.84 53.6641 196.977 52.7852 197.25 51.9883C197.523 51.1914 197.914 50.5 198.422 49.9141C198.938 49.3281 199.562 48.8789 200.297 48.5664C201.031 48.2461 201.859 48.0859 202.781 48.0859C203.68 48.0859 204.477 48.2344 205.172 48.5312C205.867 48.8281 206.449 49.25 206.918 49.7969C207.395 50.3438 207.754 51 207.996 51.7656C208.238 52.5234 208.359 53.3672 208.359 54.2969V55.7031H198.281V53.4531H205.043V53.1953C205.043 52.7266 204.957 52.3086 204.785 51.9414C204.621 51.5664 204.371 51.2695 204.035 51.0508C203.699 50.832 203.27 50.7227 202.746 50.7227C202.301 50.7227 201.918 50.8203 201.598 51.0156C201.277 51.2109 201.016 51.4844 200.812 51.8359C200.617 52.1875 200.469 52.6016 200.367 53.0781C200.273 53.5469 200.227 54.0625 200.227 54.625V55.0938C200.227 55.6016 200.297 56.0703 200.438 56.5C200.586 56.9297 200.793 57.3008 201.059 57.6133C201.332 57.9258 201.66 58.168 202.043 58.3398C202.434 58.5117 202.875 58.5977 203.367 58.5977C203.977 58.5977 204.543 58.4805 205.066 58.2461C205.598 58.0039 206.055 57.6406 206.438 57.1562L208.078 58.9375C207.812 59.3203 207.449 59.6875 206.988 60.0391C206.535 60.3906 205.988 60.6797 205.348 60.9062C204.707 61.125 203.977 61.2344 203.156 61.2344ZM213.844 43V61H210.457V43H213.844ZM220.195 43V61H216.809V43H220.195ZM226.547 48.3203V61H223.16V48.3203H226.547ZM222.949 45.0156C222.949 44.5234 223.121 44.1172 223.465 43.7969C223.809 43.4766 224.27 43.3164 224.848 43.3164C225.418 43.3164 225.875 43.4766 226.219 43.7969C226.57 44.1172 226.746 44.5234 226.746 45.0156C226.746 45.5078 226.57 45.9141 226.219 46.2344C225.875 46.5547 225.418 46.7148 224.848 46.7148C224.27 46.7148 223.809 46.5547 223.465 46.2344C223.121 45.9141 222.949 45.5078 222.949 45.0156ZM237.363 48.3203H240.422V60.5781C240.422 61.7344 240.164 62.7148 239.648 63.5195C239.141 64.332 238.43 64.9453 237.516 65.3594C236.602 65.7812 235.539 65.9922 234.328 65.9922C233.797 65.9922 233.234 65.9219 232.641 65.7812C232.055 65.6406 231.492 65.4219 230.953 65.125C230.422 64.8281 229.977 64.4531 229.617 64L231.105 62.0078C231.496 62.4609 231.949 62.8125 232.465 63.0625C232.98 63.3203 233.551 63.4492 234.176 63.4492C234.785 63.4492 235.301 63.3359 235.723 63.1094C236.145 62.8906 236.469 62.5664 236.695 62.1367C236.922 61.7148 237.035 61.2031 237.035 60.6016V51.25L237.363 48.3203ZM228.832 54.8125V54.5664C228.832 53.5977 228.949 52.7188 229.184 51.9297C229.426 51.1328 229.766 50.4492 230.203 49.8789C230.648 49.3086 231.188 48.8672 231.82 48.5547C232.453 48.2422 233.168 48.0859 233.965 48.0859C234.809 48.0859 235.516 48.2422 236.086 48.5547C236.656 48.8672 237.125 49.3125 237.492 49.8906C237.859 50.4609 238.145 51.1367 238.348 51.918C238.559 52.6914 238.723 53.5391 238.84 54.4609V55C238.723 55.8828 238.547 56.7031 238.312 57.4609C238.078 58.2188 237.77 58.8828 237.387 59.4531C237.004 60.0156 236.527 60.4531 235.957 60.7656C235.395 61.0781 234.723 61.2344 233.941 61.2344C233.16 61.2344 232.453 61.0742 231.82 60.7539C231.195 60.4336 230.66 59.9844 230.215 59.4062C229.77 58.8281 229.426 58.1484 229.184 57.3672C228.949 56.5859 228.832 55.7344 228.832 54.8125ZM232.207 54.5664V54.8125C232.207 55.3359 232.258 55.8242 232.359 56.2773C232.461 56.7305 232.617 57.1328 232.828 57.4844C233.047 57.8281 233.316 58.0977 233.637 58.293C233.965 58.4805 234.352 58.5742 234.797 58.5742C235.414 58.5742 235.918 58.4453 236.309 58.1875C236.699 57.9219 236.992 57.5586 237.188 57.0977C237.383 56.6367 237.496 56.1055 237.527 55.5039V53.9688C237.512 53.4766 237.445 53.0352 237.328 52.6445C237.211 52.2461 237.047 51.9062 236.836 51.625C236.625 51.3438 236.352 51.125 236.016 50.9688C235.68 50.8125 235.281 50.7344 234.82 50.7344C234.375 50.7344 233.988 50.8359 233.66 51.0391C233.34 51.2344 233.07 51.5039 232.852 51.8477C232.641 52.1914 232.48 52.5977 232.371 53.0664C232.262 53.5273 232.207 54.0273 232.207 54.5664ZM248.883 61.2344C247.898 61.2344 247.016 61.0781 246.234 60.7656C245.453 60.4453 244.789 60.0039 244.242 59.4414C243.703 58.8789 243.289 58.2266 243 57.4844C242.711 56.7344 242.566 55.9375 242.566 55.0938V54.625C242.566 53.6641 242.703 52.7852 242.977 51.9883C243.25 51.1914 243.641 50.5 244.148 49.9141C244.664 49.3281 245.289 48.8789 246.023 48.5664C246.758 48.2461 247.586 48.0859 248.508 48.0859C249.406 48.0859 250.203 48.2344 250.898 48.5312C251.594 48.8281 252.176 49.25 252.645 49.7969C253.121 50.3438 253.48 51 253.723 51.7656C253.965 52.5234 254.086 53.3672 254.086 54.2969V55.7031H244.008V53.4531H250.77V53.1953C250.77 52.7266 250.684 52.3086 250.512 51.9414C250.348 51.5664 250.098 51.2695 249.762 51.0508C249.426 50.832 248.996 50.7227 248.473 50.7227C248.027 50.7227 247.645 50.8203 247.324 51.0156C247.004 51.2109 246.742 51.4844 246.539 51.8359C246.344 52.1875 246.195 52.6016 246.094 53.0781C246 53.5469 245.953 54.0625 245.953 54.625V55.0938C245.953 55.6016 246.023 56.0703 246.164 56.5C246.312 56.9297 246.52 57.3008 246.785 57.6133C247.059 57.9258 247.387 58.168 247.77 58.3398C248.16 58.5117 248.602 58.5977 249.094 58.5977C249.703 58.5977 250.27 58.4805 250.793 58.2461C251.324 58.0039 251.781 57.6406 252.164 57.1562L253.805 58.9375C253.539 59.3203 253.176 59.6875 252.715 60.0391C252.262 60.3906 251.715 60.6797 251.074 60.9062C250.434 61.125 249.703 61.2344 248.883 61.2344ZM259.312 51.0273V61H255.938V48.3203H259.102L259.312 51.0273ZM258.82 54.2148H257.906C257.906 53.2773 258.027 52.4336 258.27 51.6836C258.512 50.9258 258.852 50.2812 259.289 49.75C259.727 49.2109 260.246 48.8008 260.848 48.5195C261.457 48.2305 262.137 48.0859 262.887 48.0859C263.48 48.0859 264.023 48.1719 264.516 48.3438C265.008 48.5156 265.43 48.7891 265.781 49.1641C266.141 49.5391 266.414 50.0352 266.602 50.6523C266.797 51.2695 266.895 52.0234 266.895 52.9141V61H263.496V52.9023C263.496 52.3398 263.418 51.9023 263.262 51.5898C263.105 51.2773 262.875 51.0586 262.57 50.9336C262.273 50.8008 261.906 50.7344 261.469 50.7344C261.016 50.7344 260.621 50.8242 260.285 51.0039C259.957 51.1836 259.684 51.4336 259.465 51.7539C259.254 52.0664 259.094 52.4336 258.984 52.8555C258.875 53.2773 258.82 53.7305 258.82 54.2148ZM274.699 58.5977C275.113 58.5977 275.48 58.5195 275.801 58.3633C276.121 58.1992 276.371 57.9727 276.551 57.6836C276.738 57.3867 276.836 57.0391 276.844 56.6406H280.02C280.012 57.5312 279.773 58.3242 279.305 59.0195C278.836 59.707 278.207 60.25 277.418 60.6484C276.629 61.0391 275.746 61.2344 274.77 61.2344C273.785 61.2344 272.926 61.0703 272.191 60.7422C271.465 60.4141 270.859 59.9609 270.375 59.3828C269.891 58.7969 269.527 58.1172 269.285 57.3438C269.043 56.5625 268.922 55.7266 268.922 54.8359V54.4961C268.922 53.5977 269.043 52.7617 269.285 51.9883C269.527 51.207 269.891 50.5273 270.375 49.9492C270.859 49.3633 271.465 48.9062 272.191 48.5781C272.918 48.25 273.77 48.0859 274.746 48.0859C275.785 48.0859 276.695 48.2852 277.477 48.6836C278.266 49.082 278.883 49.6523 279.328 50.3945C279.781 51.1289 280.012 52 280.02 53.0078H276.844C276.836 52.5859 276.746 52.2031 276.574 51.8594C276.41 51.5156 276.168 51.2422 275.848 51.0391C275.535 50.8281 275.148 50.7227 274.688 50.7227C274.195 50.7227 273.793 50.8281 273.48 51.0391C273.168 51.2422 272.926 51.5234 272.754 51.8828C272.582 52.2344 272.461 52.6367 272.391 53.0898C272.328 53.5352 272.297 54.0039 272.297 54.4961V54.8359C272.297 55.3281 272.328 55.8008 272.391 56.2539C272.453 56.707 272.57 57.1094 272.742 57.4609C272.922 57.8125 273.168 58.0898 273.48 58.293C273.793 58.4961 274.199 58.5977 274.699 58.5977ZM287.812 61.2344C286.828 61.2344 285.945 61.0781 285.164 60.7656C284.383 60.4453 283.719 60.0039 283.172 59.4414C282.633 58.8789 282.219 58.2266 281.93 57.4844C281.641 56.7344 281.496 55.9375 281.496 55.0938V54.625C281.496 53.6641 281.633 52.7852 281.906 51.9883C282.18 51.1914 282.57 50.5 283.078 49.9141C283.594 49.3281 284.219 48.8789 284.953 48.5664C285.688 48.2461 286.516 48.0859 287.438 48.0859C288.336 48.0859 289.133 48.2344 289.828 48.5312C290.523 48.8281 291.105 49.25 291.574 49.7969C292.051 50.3438 292.41 51 292.652 51.7656C292.895 52.5234 293.016 53.3672 293.016 54.2969V55.7031H282.938V53.4531H289.699V53.1953C289.699 52.7266 289.613 52.3086 289.441 51.9414C289.277 51.5664 289.027 51.2695 288.691 51.0508C288.355 50.832 287.926 50.7227 287.402 50.7227C286.957 50.7227 286.574 50.8203 286.254 51.0156C285.934 51.2109 285.672 51.4844 285.469 51.8359C285.273 52.1875 285.125 52.6016 285.023 53.0781C284.93 53.5469 284.883 54.0625 284.883 54.625V55.0938C284.883 55.6016 284.953 56.0703 285.094 56.5C285.242 56.9297 285.449 57.3008 285.715 57.6133C285.988 57.9258 286.316 58.168 286.699 58.3398C287.09 58.5117 287.531 58.5977 288.023 58.5977C288.633 58.5977 289.199 58.4805 289.723 58.2461C290.254 58.0039 290.711 57.6406 291.094 57.1562L292.734 58.9375C292.469 59.3203 292.105 59.6875 291.645 60.0391C291.191 60.3906 290.645 60.6797 290.004 60.9062C289.363 61.125 288.633 61.2344 287.812 61.2344Z" fill="#888888"/>
<path d="M110.062 92.0469L101.742 119H92.9062L105.445 84.875H111.047L110.062 92.0469ZM116.953 119L108.609 92.0469L107.531 84.875H113.203L125.812 119H116.953ZM116.625 106.273V112.625H99.1172V106.273H116.625ZM137.062 84.875V119H128.859V84.875H137.062ZM157.898 101.234V107.352H143.812V101.234H157.898ZM178.078 107.422H169.594V101.07H178.078C179.234 101.07 180.172 100.875 180.891 100.484C181.609 100.094 182.133 99.5547 182.461 98.8672C182.805 98.1641 182.977 97.375 182.977 96.5C182.977 95.5625 182.805 94.6953 182.461 93.8984C182.133 93.1016 181.609 92.4609 180.891 91.9766C180.172 91.4766 179.234 91.2266 178.078 91.2266H172.688V119H164.461V84.875H178.078C180.812 84.875 183.164 85.375 185.133 86.375C187.117 87.375 188.641 88.75 189.703 90.5C190.766 92.2344 191.297 94.2188 191.297 96.4531C191.297 98.6562 190.766 100.578 189.703 102.219C188.641 103.859 187.117 105.141 185.133 106.062C183.164 106.969 180.812 107.422 178.078 107.422ZM194.039 106.578V106.086C194.039 104.227 194.305 102.516 194.836 100.953C195.367 99.375 196.148 98.0078 197.18 96.8516C198.211 95.6953 199.484 94.7969 201 94.1562C202.516 93.5 204.266 93.1719 206.25 93.1719C208.25 93.1719 210.008 93.5 211.523 94.1562C213.055 94.7969 214.336 95.6953 215.367 96.8516C216.398 98.0078 217.18 99.375 217.711 100.953C218.242 102.516 218.508 104.227 218.508 106.086V106.578C218.508 108.422 218.242 110.133 217.711 111.711C217.18 113.273 216.398 114.641 215.367 115.812C214.336 116.969 213.062 117.867 211.547 118.508C210.031 119.148 208.281 119.469 206.297 119.469C204.312 119.469 202.555 119.148 201.023 118.508C199.492 117.867 198.211 116.969 197.18 115.812C196.148 114.641 195.367 113.273 194.836 111.711C194.305 110.133 194.039 108.422 194.039 106.578ZM201.938 106.086V106.578C201.938 107.531 202.008 108.422 202.148 109.25C202.289 110.078 202.523 110.805 202.852 111.43C203.18 112.039 203.625 112.516 204.188 112.859C204.75 113.203 205.453 113.375 206.297 113.375C207.125 113.375 207.812 113.203 208.359 112.859C208.922 112.516 209.367 112.039 209.695 111.43C210.023 110.805 210.258 110.078 210.398 109.25C210.539 108.422 210.609 107.531 210.609 106.578V106.086C210.609 105.164 210.539 104.297 210.398 103.484C210.258 102.656 210.023 101.93 209.695 101.305C209.367 100.664 208.922 100.164 208.359 99.8047C207.797 99.4453 207.094 99.2656 206.25 99.2656C205.422 99.2656 204.727 99.4453 204.164 99.8047C203.617 100.164 203.18 100.664 202.852 101.305C202.523 101.93 202.289 102.656 202.148 103.484C202.008 104.297 201.938 105.164 201.938 106.086ZM229.734 111.453L234.422 93.6406H239.367L237.609 102.57L232.969 119H229.008L229.734 111.453ZM227.883 93.6406L230.789 111.312L231.117 119H226.312L220.312 93.6406H227.883ZM243.539 110.938L246.469 93.6406H254.039L248.086 119H243.281L243.539 110.938ZM239.93 93.6406L244.664 111.406L245.391 119H241.383L236.836 102.617L235.148 93.6406H239.93ZM269.18 119.469C267.117 119.469 265.273 119.148 263.648 118.508C262.023 117.852 260.648 116.953 259.523 115.812C258.414 114.672 257.562 113.359 256.969 111.875C256.391 110.391 256.102 108.82 256.102 107.164V106.273C256.102 104.414 256.359 102.695 256.875 101.117C257.391 99.5234 258.156 98.1328 259.172 96.9453C260.188 95.7578 261.461 94.8359 262.992 94.1797C264.523 93.5078 266.305 93.1719 268.336 93.1719C270.133 93.1719 271.742 93.4609 273.164 94.0391C274.586 94.6172 275.789 95.4453 276.773 96.5234C277.773 97.6016 278.531 98.9062 279.047 100.438C279.578 101.969 279.844 103.688 279.844 105.594V108.805H259.125V103.859H272.133V103.25C272.148 102.406 272 101.688 271.688 101.094C271.391 100.5 270.953 100.047 270.375 99.7344C269.797 99.4219 269.094 99.2656 268.266 99.2656C267.406 99.2656 266.695 99.4531 266.133 99.8281C265.586 100.203 265.156 100.719 264.844 101.375C264.547 102.016 264.336 102.758 264.211 103.602C264.086 104.445 264.023 105.336 264.023 106.273V107.164C264.023 108.102 264.148 108.953 264.398 109.719C264.664 110.484 265.039 111.141 265.523 111.688C266.023 112.219 266.617 112.633 267.305 112.93C268.008 113.227 268.805 113.375 269.695 113.375C270.773 113.375 271.836 113.172 272.883 112.766C273.93 112.359 274.828 111.688 275.578 110.75L279.164 115.016C278.648 115.75 277.914 116.461 276.961 117.148C276.023 117.836 274.898 118.398 273.586 118.836C272.273 119.258 270.805 119.469 269.18 119.469ZM291.023 99.9219V119H283.125V93.6406H290.508L291.023 99.9219ZM298.523 93.4531L298.383 100.789C298.07 100.758 297.648 100.719 297.117 100.672C296.586 100.625 296.141 100.602 295.781 100.602C294.859 100.602 294.062 100.711 293.391 100.93C292.734 101.133 292.188 101.445 291.75 101.867C291.328 102.273 291.016 102.789 290.812 103.414C290.625 104.039 290.539 104.766 290.555 105.594L289.125 104.656C289.125 102.953 289.289 101.406 289.617 100.016C289.961 98.6094 290.445 97.3984 291.07 96.3828C291.695 95.3516 292.453 94.5625 293.344 94.0156C294.234 93.4531 295.234 93.1719 296.344 93.1719C296.734 93.1719 297.117 93.1953 297.492 93.2422C297.883 93.2891 298.227 93.3594 298.523 93.4531ZM313.055 119.469C310.992 119.469 309.148 119.148 307.523 118.508C305.898 117.852 304.523 116.953 303.398 115.812C302.289 114.672 301.438 113.359 300.844 111.875C300.266 110.391 299.977 108.82 299.977 107.164V106.273C299.977 104.414 300.234 102.695 300.75 101.117C301.266 99.5234 302.031 98.1328 303.047 96.9453C304.062 95.7578 305.336 94.8359 306.867 94.1797C308.398 93.5078 310.18 93.1719 312.211 93.1719C314.008 93.1719 315.617 93.4609 317.039 94.0391C318.461 94.6172 319.664 95.4453 320.648 96.5234C321.648 97.6016 322.406 98.9062 322.922 100.438C323.453 101.969 323.719 103.688 323.719 105.594V108.805H303V103.859H316.008V103.25C316.023 102.406 315.875 101.688 315.562 101.094C315.266 100.5 314.828 100.047 314.25 99.7344C313.672 99.4219 312.969 99.2656 312.141 99.2656C311.281 99.2656 310.57 99.4531 310.008 99.8281C309.461 100.203 309.031 100.719 308.719 101.375C308.422 102.016 308.211 102.758 308.086 103.602C307.961 104.445 307.898 105.336 307.898 106.273V107.164C307.898 108.102 308.023 108.953 308.273 109.719C308.539 110.484 308.914 111.141 309.398 111.688C309.898 112.219 310.492 112.633 311.18 112.93C311.883 113.227 312.68 113.375 313.57 113.375C314.648 113.375 315.711 113.172 316.758 112.766C317.805 112.359 318.703 111.688 319.453 110.75L323.039 115.016C322.523 115.75 321.789 116.461 320.836 117.148C319.898 117.836 318.773 118.398 317.461 118.836C316.148 119.258 314.68 119.469 313.055 119.469ZM341.508 113.188V83H349.453V119H342.328L341.508 113.188ZM325.945 106.625V106.133C325.945 104.211 326.156 102.461 326.578 100.883C327 99.2891 327.625 97.9219 328.453 96.7812C329.281 95.625 330.312 94.7344 331.547 94.1094C332.781 93.4844 334.203 93.1719 335.812 93.1719C337.25 93.1719 338.508 93.5078 339.586 94.1797C340.664 94.8359 341.586 95.7578 342.352 96.9453C343.117 98.1328 343.742 99.5234 344.227 101.117C344.711 102.695 345.078 104.398 345.328 106.227V106.812C345.078 108.531 344.711 110.156 344.227 111.688C343.742 113.203 343.117 114.547 342.352 115.719C341.586 116.891 340.656 117.812 339.562 118.484C338.484 119.141 337.219 119.469 335.766 119.469C334.156 119.469 332.734 119.148 331.5 118.508C330.281 117.867 329.258 116.969 328.43 115.812C327.617 114.656 327 113.297 326.578 111.734C326.156 110.172 325.945 108.469 325.945 106.625ZM333.844 106.133V106.625C333.844 107.578 333.906 108.461 334.031 109.273C334.156 110.086 334.367 110.805 334.664 111.43C334.977 112.039 335.383 112.516 335.883 112.859C336.398 113.203 337.031 113.375 337.781 113.375C338.797 113.375 339.633 113.133 340.289 112.648C340.961 112.164 341.453 111.477 341.766 110.586C342.094 109.695 342.234 108.648 342.188 107.445V105.594C342.219 104.562 342.148 103.656 341.977 102.875C341.805 102.078 341.531 101.414 341.156 100.883C340.797 100.352 340.336 99.9531 339.773 99.6875C339.227 99.4062 338.578 99.2656 337.828 99.2656C337.094 99.2656 336.469 99.4375 335.953 99.7812C335.453 100.125 335.047 100.609 334.734 101.234C334.422 101.844 334.195 102.57 334.055 103.414C333.914 104.242 333.844 105.148 333.844 106.133ZM380.719 92.0469L372.398 119H363.562L376.102 84.875H381.703L380.719 92.0469ZM387.609 119L379.266 92.0469L378.188 84.875H383.859L396.469 119H387.609ZM387.281 106.273V112.625H369.773V106.273H387.281ZM405.445 98.5156V128.75H397.547V93.6406H404.906L405.445 98.5156ZM421.008 106.016V106.508C421.008 108.352 420.797 110.062 420.375 111.641C419.953 113.219 419.328 114.594 418.5 115.766C417.672 116.938 416.641 117.852 415.406 118.508C414.188 119.148 412.773 119.469 411.164 119.469C409.648 119.469 408.344 119.133 407.25 118.461C406.156 117.789 405.242 116.859 404.508 115.672C403.773 114.484 403.18 113.125 402.727 111.594C402.273 110.062 401.914 108.445 401.648 106.742V106.109C401.914 104.281 402.273 102.586 402.727 101.023C403.18 99.4453 403.773 98.0703 404.508 96.8984C405.242 95.7266 406.148 94.8125 407.227 94.1562C408.32 93.5 409.625 93.1719 411.141 93.1719C412.75 93.1719 414.164 93.4766 415.383 94.0859C416.617 94.6953 417.648 95.5703 418.477 96.7109C419.32 97.8359 419.953 99.1875 420.375 100.766C420.797 102.344 421.008 104.094 421.008 106.016ZM413.109 106.508V106.016C413.109 105.031 413.039 104.133 412.898 103.32C412.758 102.492 412.531 101.773 412.219 101.164C411.922 100.555 411.523 100.086 411.023 99.7578C410.523 99.4297 409.906 99.2656 409.172 99.2656C408.328 99.2656 407.617 99.3984 407.039 99.6641C406.477 99.9141 406.023 100.305 405.68 100.836C405.352 101.352 405.117 102 404.977 102.781C404.852 103.547 404.797 104.445 404.812 105.477V107.398C404.781 108.586 404.898 109.633 405.164 110.539C405.43 111.43 405.891 112.125 406.547 112.625C407.203 113.125 408.094 113.375 409.219 113.375C409.969 113.375 410.594 113.203 411.094 112.859C411.594 112.5 411.992 112.008 412.289 111.383C412.586 110.742 412.797 110.008 412.922 109.18C413.047 108.352 413.109 107.461 413.109 106.508ZM432.492 98.5156V128.75H424.594V93.6406H431.953L432.492 98.5156ZM448.055 106.016V106.508C448.055 108.352 447.844 110.062 447.422 111.641C447 113.219 446.375 114.594 445.547 115.766C444.719 116.938 443.688 117.852 442.453 118.508C441.234 119.148 439.82 119.469 438.211 119.469C436.695 119.469 435.391 119.133 434.297 118.461C433.203 117.789 432.289 116.859 431.555 115.672C430.82 114.484 430.227 113.125 429.773 111.594C429.32 110.062 428.961 108.445 428.695 106.742V106.109C428.961 104.281 429.32 102.586 429.773 101.023C430.227 99.4453 430.82 98.0703 431.555 96.8984C432.289 95.7266 433.195 94.8125 434.273 94.1562C435.367 93.5 436.672 93.1719 438.188 93.1719C439.797 93.1719 441.211 93.4766 442.43 94.0859C443.664 94.6953 444.695 95.5703 445.523 96.7109C446.367 97.8359 447 99.1875 447.422 100.766C447.844 102.344 448.055 104.094 448.055 106.016ZM440.156 106.508V106.016C440.156 105.031 440.086 104.133 439.945 103.32C439.805 102.492 439.578 101.773 439.266 101.164C438.969 100.555 438.57 100.086 438.07 99.7578C437.57 99.4297 436.953 99.2656 436.219 99.2656C435.375 99.2656 434.664 99.3984 434.086 99.6641C433.523 99.9141 433.07 100.305 432.727 100.836C432.398 101.352 432.164 102 432.023 102.781C431.898 103.547 431.844 104.445 431.859 105.477V107.398C431.828 108.586 431.945 109.633 432.211 110.539C432.477 111.43 432.938 112.125 433.594 112.625C434.25 113.125 435.141 113.375 436.266 113.375C437.016 113.375 437.641 113.203 438.141 112.859C438.641 112.5 439.039 112.008 439.336 111.383C439.633 110.742 439.844 110.008 439.969 109.18C440.094 108.352 440.156 107.461 440.156 106.508Z" fill="black"/>
<path d="M1134 0H1348C1356.28 0 1363 6.71573 1363 15V148C1363 156.284 1356.28 163 1348 163H1134V0Z" fill="#F9A43A"/>
<path d="M1248.5 70.1664V58.8331H1237.17" stroke="white" stroke-width="5" stroke-linecap="round" stroke-linejoin="round"/>
<path d="M1265.5 70.1666H1231.5C1228.37 70.1666 1225.83 72.7036 1225.83 75.8333V98.4999C1225.83 101.63 1228.37 104.167 1231.5 104.167H1265.5C1268.63 104.167 1271.17 101.63 1271.17 98.4999V75.8333C1271.17 72.7036 1268.63 70.1666 1265.5 70.1666Z" stroke="white" stroke-width="5" stroke-linecap="round" stroke-linejoin="round"/>
<path d="M1220.17 87.1666H1225.83" stroke="white" stroke-width="5" stroke-linecap="round" stroke-linejoin="round"/>
<path d="M1271.17 87.1666H1276.83" stroke="white" stroke-width="5" stroke-linecap="round" stroke-linejoin="round"/>
<path d="M1257 84.3331V89.9998" stroke="white" stroke-width="5" stroke-linecap="round" stroke-linejoin="round"/>
<path d="M1240 84.3331V89.9998" stroke="white" stroke-width="5" stroke-linecap="round" stroke-linejoin="round"/>
</svg>
