<svg width="1363" height="163" viewBox="0 0 1363 163" fill="none" xmlns="http://www.w3.org/2000/svg">
<path d="M0 15C0 6.71573 6.71573 0 15 0H37V163H15C6.71573 163 0 156.284 0 148V15Z" fill="#424242"/>
<rect width="1097" height="163" transform="translate(37)" fill="#F0F0F0"/>
<path d="M101.906 53.9219L94.3945 51.2383V48.0859L104.602 52.375V54.6367L101.906 53.9219ZM94.3945 56.1719L101.918 53.4297L104.602 52.7852V55.0352L94.3945 59.3242V56.1719ZM119.836 46.8555L115.195 61H111.457L117.797 43.9375H120.176L119.836 46.8555ZM123.691 61L119.039 46.8555L118.664 43.9375H121.066L127.441 61H123.691ZM123.48 54.6484V57.4023H114.469V54.6484H123.48ZM131.812 50.9453V61H128.426V48.3203H131.602L131.812 50.9453ZM131.344 54.2148H130.406C130.406 53.332 130.512 52.5195 130.723 51.7773C130.941 51.0273 131.258 50.3789 131.672 49.832C132.094 49.2773 132.613 48.8477 133.23 48.543C133.848 48.2383 134.562 48.0859 135.375 48.0859C135.938 48.0859 136.453 48.1719 136.922 48.3438C137.391 48.5078 137.793 48.7695 138.129 49.1289C138.473 49.4805 138.738 49.9414 138.926 50.5117C139.113 51.0742 139.207 51.75 139.207 52.5391V61H135.832V52.9141C135.832 52.3359 135.754 51.8906 135.598 51.5781C135.441 51.2656 135.219 51.0469 134.93 50.9219C134.648 50.7969 134.309 50.7344 133.91 50.7344C133.473 50.7344 133.09 50.8242 132.762 51.0039C132.441 51.1836 132.176 51.4336 131.965 51.7539C131.754 52.0664 131.598 52.4336 131.496 52.8555C131.395 53.2773 131.344 53.7305 131.344 54.2148ZM138.891 53.8281L137.684 53.9805C137.684 53.1523 137.785 52.3828 137.988 51.6719C138.199 50.9609 138.508 50.3359 138.914 49.7969C139.328 49.2578 139.84 48.8398 140.449 48.543C141.059 48.2383 141.762 48.0859 142.559 48.0859C143.168 48.0859 143.723 48.1758 144.223 48.3555C144.723 48.5273 145.148 48.8047 145.5 49.1875C145.859 49.5625 146.133 50.0547 146.32 50.6641C146.516 51.2734 146.613 52.0195 146.613 52.9023V61H143.227V52.9023C143.227 52.3164 143.148 51.8711 142.992 51.5664C142.844 51.2539 142.625 51.0391 142.336 50.9219C142.055 50.7969 141.719 50.7344 141.328 50.7344C140.922 50.7344 140.566 50.8164 140.262 50.9805C139.957 51.1367 139.703 51.3555 139.5 51.6367C139.297 51.918 139.145 52.2461 139.043 52.6211C138.941 52.9883 138.891 53.3906 138.891 53.8281ZM152.602 50.7578V65.875H149.227V48.3203H152.355L152.602 50.7578ZM160.629 54.5195V54.7656C160.629 55.6875 160.52 56.543 160.301 57.332C160.09 58.1211 159.777 58.8086 159.363 59.3945C158.949 59.9727 158.434 60.4258 157.816 60.7539C157.207 61.0742 156.504 61.2344 155.707 61.2344C154.934 61.2344 154.262 61.0781 153.691 60.7656C153.121 60.4531 152.641 60.0156 152.25 59.4531C151.867 58.8828 151.559 58.2227 151.324 57.4727C151.09 56.7227 150.91 55.918 150.785 55.0586V54.4141C150.91 53.4922 151.09 52.6484 151.324 51.8828C151.559 51.1094 151.867 50.4414 152.25 49.8789C152.641 49.3086 153.117 48.8672 153.68 48.5547C154.25 48.2422 154.918 48.0859 155.684 48.0859C156.488 48.0859 157.195 48.2383 157.805 48.543C158.422 48.8477 158.938 49.2852 159.352 49.8555C159.773 50.4258 160.09 51.1055 160.301 51.8945C160.52 52.6836 160.629 53.5586 160.629 54.5195ZM157.242 54.7656V54.5195C157.242 53.9805 157.195 53.4844 157.102 53.0312C157.016 52.5703 156.875 52.168 156.68 51.8242C156.492 51.4805 156.242 51.2148 155.93 51.0273C155.625 50.832 155.254 50.7344 154.816 50.7344C154.355 50.7344 153.961 50.8086 153.633 50.957C153.312 51.1055 153.051 51.3203 152.848 51.6016C152.645 51.8828 152.492 52.2188 152.391 52.6094C152.289 53 152.227 53.4414 152.203 53.9336V55.5625C152.242 56.1406 152.352 56.6602 152.531 57.1211C152.711 57.5742 152.988 57.9336 153.363 58.1992C153.738 58.4648 154.23 58.5977 154.84 58.5977C155.285 58.5977 155.66 58.5 155.965 58.3047C156.27 58.1016 156.516 57.8242 156.703 57.4727C156.898 57.1211 157.035 56.7148 157.113 56.2539C157.199 55.793 157.242 55.2969 157.242 54.7656ZM172.652 43.9375V61H169.148V43.9375H172.652ZM179.039 51.0273V61H175.664V48.3203H178.828L179.039 51.0273ZM178.547 54.2148H177.633C177.633 53.2773 177.754 52.4336 177.996 51.6836C178.238 50.9258 178.578 50.2812 179.016 49.75C179.453 49.2109 179.973 48.8008 180.574 48.5195C181.184 48.2305 181.863 48.0859 182.613 48.0859C183.207 48.0859 183.75 48.1719 184.242 48.3438C184.734 48.5156 185.156 48.7891 185.508 49.1641C185.867 49.5391 186.141 50.0352 186.328 50.6523C186.523 51.2695 186.621 52.0234 186.621 52.9141V61H183.223V52.9023C183.223 52.3398 183.145 51.9023 182.988 51.5898C182.832 51.2773 182.602 51.0586 182.297 50.9336C182 50.8008 181.633 50.7344 181.195 50.7344C180.742 50.7344 180.348 50.8242 180.012 51.0039C179.684 51.1836 179.41 51.4336 179.191 51.7539C178.98 52.0664 178.82 52.4336 178.711 52.8555C178.602 53.2773 178.547 53.7305 178.547 54.2148ZM195.398 48.3203V50.7109H188.016V48.3203H195.398ZM189.844 45.1914H193.219V57.1797C193.219 57.5469 193.266 57.8281 193.359 58.0234C193.461 58.2188 193.609 58.3555 193.805 58.4336C194 58.5039 194.246 58.5391 194.543 58.5391C194.754 58.5391 194.941 58.5312 195.105 58.5156C195.277 58.4922 195.422 58.4688 195.539 58.4453L195.551 60.9297C195.262 61.0234 194.949 61.0977 194.613 61.1523C194.277 61.207 193.906 61.2344 193.5 61.2344C192.758 61.2344 192.109 61.1133 191.555 60.8711C191.008 60.6211 190.586 60.2227 190.289 59.6758C189.992 59.1289 189.844 58.4102 189.844 57.5195V45.1914ZM203.156 61.2344C202.172 61.2344 201.289 61.0781 200.508 60.7656C199.727 60.4453 199.062 60.0039 198.516 59.4414C197.977 58.8789 197.562 58.2266 197.273 57.4844C196.984 56.7344 196.84 55.9375 196.84 55.0938V54.625C196.84 53.6641 196.977 52.7852 197.25 51.9883C197.523 51.1914 197.914 50.5 198.422 49.9141C198.938 49.3281 199.562 48.8789 200.297 48.5664C201.031 48.2461 201.859 48.0859 202.781 48.0859C203.68 48.0859 204.477 48.2344 205.172 48.5312C205.867 48.8281 206.449 49.25 206.918 49.7969C207.395 50.3438 207.754 51 207.996 51.7656C208.238 52.5234 208.359 53.3672 208.359 54.2969V55.7031H198.281V53.4531H205.043V53.1953C205.043 52.7266 204.957 52.3086 204.785 51.9414C204.621 51.5664 204.371 51.2695 204.035 51.0508C203.699 50.832 203.27 50.7227 202.746 50.7227C202.301 50.7227 201.918 50.8203 201.598 51.0156C201.277 51.2109 201.016 51.4844 200.812 51.8359C200.617 52.1875 200.469 52.6016 200.367 53.0781C200.273 53.5469 200.227 54.0625 200.227 54.625V55.0938C200.227 55.6016 200.297 56.0703 200.438 56.5C200.586 56.9297 200.793 57.3008 201.059 57.6133C201.332 57.9258 201.66 58.168 202.043 58.3398C202.434 58.5117 202.875 58.5977 203.367 58.5977C203.977 58.5977 204.543 58.4805 205.066 58.2461C205.598 58.0039 206.055 57.6406 206.438 57.1562L208.078 58.9375C207.812 59.3203 207.449 59.6875 206.988 60.0391C206.535 60.3906 205.988 60.6797 205.348 60.9062C204.707 61.125 203.977 61.2344 203.156 61.2344ZM213.844 43V61H210.457V43H213.844ZM220.195 43V61H216.809V43H220.195ZM226.547 48.3203V61H223.16V48.3203H226.547ZM222.949 45.0156C222.949 44.5234 223.121 44.1172 223.465 43.7969C223.809 43.4766 224.27 43.3164 224.848 43.3164C225.418 43.3164 225.875 43.4766 226.219 43.7969C226.57 44.1172 226.746 44.5234 226.746 45.0156C226.746 45.5078 226.57 45.9141 226.219 46.2344C225.875 46.5547 225.418 46.7148 224.848 46.7148C224.27 46.7148 223.809 46.5547 223.465 46.2344C223.121 45.9141 222.949 45.5078 222.949 45.0156ZM237.363 48.3203H240.422V60.5781C240.422 61.7344 240.164 62.7148 239.648 63.5195C239.141 64.332 238.43 64.9453 237.516 65.3594C236.602 65.7812 235.539 65.9922 234.328 65.9922C233.797 65.9922 233.234 65.9219 232.641 65.7812C232.055 65.6406 231.492 65.4219 230.953 65.125C230.422 64.8281 229.977 64.4531 229.617 64L231.105 62.0078C231.496 62.4609 231.949 62.8125 232.465 63.0625C232.98 63.3203 233.551 63.4492 234.176 63.4492C234.785 63.4492 235.301 63.3359 235.723 63.1094C236.145 62.8906 236.469 62.5664 236.695 62.1367C236.922 61.7148 237.035 61.2031 237.035 60.6016V51.25L237.363 48.3203ZM228.832 54.8125V54.5664C228.832 53.5977 228.949 52.7188 229.184 51.9297C229.426 51.1328 229.766 50.4492 230.203 49.8789C230.648 49.3086 231.188 48.8672 231.82 48.5547C232.453 48.2422 233.168 48.0859 233.965 48.0859C234.809 48.0859 235.516 48.2422 236.086 48.5547C236.656 48.8672 237.125 49.3125 237.492 49.8906C237.859 50.4609 238.145 51.1367 238.348 51.918C238.559 52.6914 238.723 53.5391 238.84 54.4609V55C238.723 55.8828 238.547 56.7031 238.312 57.4609C238.078 58.2188 237.77 58.8828 237.387 59.4531C237.004 60.0156 236.527 60.4531 235.957 60.7656C235.395 61.0781 234.723 61.2344 233.941 61.2344C233.16 61.2344 232.453 61.0742 231.82 60.7539C231.195 60.4336 230.66 59.9844 230.215 59.4062C229.77 58.8281 229.426 58.1484 229.184 57.3672C228.949 56.5859 228.832 55.7344 228.832 54.8125ZM232.207 54.5664V54.8125C232.207 55.3359 232.258 55.8242 232.359 56.2773C232.461 56.7305 232.617 57.1328 232.828 57.4844C233.047 57.8281 233.316 58.0977 233.637 58.293C233.965 58.4805 234.352 58.5742 234.797 58.5742C235.414 58.5742 235.918 58.4453 236.309 58.1875C236.699 57.9219 236.992 57.5586 237.188 57.0977C237.383 56.6367 237.496 56.1055 237.527 55.5039V53.9688C237.512 53.4766 237.445 53.0352 237.328 52.6445C237.211 52.2461 237.047 51.9062 236.836 51.625C236.625 51.3438 236.352 51.125 236.016 50.9688C235.68 50.8125 235.281 50.7344 234.82 50.7344C234.375 50.7344 233.988 50.8359 233.66 51.0391C233.34 51.2344 233.07 51.5039 232.852 51.8477C232.641 52.1914 232.48 52.5977 232.371 53.0664C232.262 53.5273 232.207 54.0273 232.207 54.5664ZM248.883 61.2344C247.898 61.2344 247.016 61.0781 246.234 60.7656C245.453 60.4453 244.789 60.0039 244.242 59.4414C243.703 58.8789 243.289 58.2266 243 57.4844C242.711 56.7344 242.566 55.9375 242.566 55.0938V54.625C242.566 53.6641 242.703 52.7852 242.977 51.9883C243.25 51.1914 243.641 50.5 244.148 49.9141C244.664 49.3281 245.289 48.8789 246.023 48.5664C246.758 48.2461 247.586 48.0859 248.508 48.0859C249.406 48.0859 250.203 48.2344 250.898 48.5312C251.594 48.8281 252.176 49.25 252.645 49.7969C253.121 50.3438 253.48 51 253.723 51.7656C253.965 52.5234 254.086 53.3672 254.086 54.2969V55.7031H244.008V53.4531H250.77V53.1953C250.77 52.7266 250.684 52.3086 250.512 51.9414C250.348 51.5664 250.098 51.2695 249.762 51.0508C249.426 50.832 248.996 50.7227 248.473 50.7227C248.027 50.7227 247.645 50.8203 247.324 51.0156C247.004 51.2109 246.742 51.4844 246.539 51.8359C246.344 52.1875 246.195 52.6016 246.094 53.0781C246 53.5469 245.953 54.0625 245.953 54.625V55.0938C245.953 55.6016 246.023 56.0703 246.164 56.5C246.312 56.9297 246.52 57.3008 246.785 57.6133C247.059 57.9258 247.387 58.168 247.77 58.3398C248.16 58.5117 248.602 58.5977 249.094 58.5977C249.703 58.5977 250.27 58.4805 250.793 58.2461C251.324 58.0039 251.781 57.6406 252.164 57.1562L253.805 58.9375C253.539 59.3203 253.176 59.6875 252.715 60.0391C252.262 60.3906 251.715 60.6797 251.074 60.9062C250.434 61.125 249.703 61.2344 248.883 61.2344ZM259.312 51.0273V61H255.938V48.3203H259.102L259.312 51.0273ZM258.82 54.2148H257.906C257.906 53.2773 258.027 52.4336 258.27 51.6836C258.512 50.9258 258.852 50.2812 259.289 49.75C259.727 49.2109 260.246 48.8008 260.848 48.5195C261.457 48.2305 262.137 48.0859 262.887 48.0859C263.48 48.0859 264.023 48.1719 264.516 48.3438C265.008 48.5156 265.43 48.7891 265.781 49.1641C266.141 49.5391 266.414 50.0352 266.602 50.6523C266.797 51.2695 266.895 52.0234 266.895 52.9141V61H263.496V52.9023C263.496 52.3398 263.418 51.9023 263.262 51.5898C263.105 51.2773 262.875 51.0586 262.57 50.9336C262.273 50.8008 261.906 50.7344 261.469 50.7344C261.016 50.7344 260.621 50.8242 260.285 51.0039C259.957 51.1836 259.684 51.4336 259.465 51.7539C259.254 52.0664 259.094 52.4336 258.984 52.8555C258.875 53.2773 258.82 53.7305 258.82 54.2148ZM274.699 58.5977C275.113 58.5977 275.48 58.5195 275.801 58.3633C276.121 58.1992 276.371 57.9727 276.551 57.6836C276.738 57.3867 276.836 57.0391 276.844 56.6406H280.02C280.012 57.5312 279.773 58.3242 279.305 59.0195C278.836 59.707 278.207 60.25 277.418 60.6484C276.629 61.0391 275.746 61.2344 274.77 61.2344C273.785 61.2344 272.926 61.0703 272.191 60.7422C271.465 60.4141 270.859 59.9609 270.375 59.3828C269.891 58.7969 269.527 58.1172 269.285 57.3438C269.043 56.5625 268.922 55.7266 268.922 54.8359V54.4961C268.922 53.5977 269.043 52.7617 269.285 51.9883C269.527 51.207 269.891 50.5273 270.375 49.9492C270.859 49.3633 271.465 48.9062 272.191 48.5781C272.918 48.25 273.77 48.0859 274.746 48.0859C275.785 48.0859 276.695 48.2852 277.477 48.6836C278.266 49.082 278.883 49.6523 279.328 50.3945C279.781 51.1289 280.012 52 280.02 53.0078H276.844C276.836 52.5859 276.746 52.2031 276.574 51.8594C276.41 51.5156 276.168 51.2422 275.848 51.0391C275.535 50.8281 275.148 50.7227 274.688 50.7227C274.195 50.7227 273.793 50.8281 273.48 51.0391C273.168 51.2422 272.926 51.5234 272.754 51.8828C272.582 52.2344 272.461 52.6367 272.391 53.0898C272.328 53.5352 272.297 54.0039 272.297 54.4961V54.8359C272.297 55.3281 272.328 55.8008 272.391 56.2539C272.453 56.707 272.57 57.1094 272.742 57.4609C272.922 57.8125 273.168 58.0898 273.48 58.293C273.793 58.4961 274.199 58.5977 274.699 58.5977ZM287.812 61.2344C286.828 61.2344 285.945 61.0781 285.164 60.7656C284.383 60.4453 283.719 60.0039 283.172 59.4414C282.633 58.8789 282.219 58.2266 281.93 57.4844C281.641 56.7344 281.496 55.9375 281.496 55.0938V54.625C281.496 53.6641 281.633 52.7852 281.906 51.9883C282.18 51.1914 282.57 50.5 283.078 49.9141C283.594 49.3281 284.219 48.8789 284.953 48.5664C285.688 48.2461 286.516 48.0859 287.438 48.0859C288.336 48.0859 289.133 48.2344 289.828 48.5312C290.523 48.8281 291.105 49.25 291.574 49.7969C292.051 50.3438 292.41 51 292.652 51.7656C292.895 52.5234 293.016 53.3672 293.016 54.2969V55.7031H282.938V53.4531H289.699V53.1953C289.699 52.7266 289.613 52.3086 289.441 51.9414C289.277 51.5664 289.027 51.2695 288.691 51.0508C288.355 50.832 287.926 50.7227 287.402 50.7227C286.957 50.7227 286.574 50.8203 286.254 51.0156C285.934 51.2109 285.672 51.4844 285.469 51.8359C285.273 52.1875 285.125 52.6016 285.023 53.0781C284.93 53.5469 284.883 54.0625 284.883 54.625V55.0938C284.883 55.6016 284.953 56.0703 285.094 56.5C285.242 56.9297 285.449 57.3008 285.715 57.6133C285.988 57.9258 286.316 58.168 286.699 58.3398C287.09 58.5117 287.531 58.5977 288.023 58.5977C288.633 58.5977 289.199 58.4805 289.723 58.2461C290.254 58.0039 290.711 57.6406 291.094 57.1562L292.734 58.9375C292.469 59.3203 292.105 59.6875 291.645 60.0391C291.191 60.3906 290.645 60.6797 290.004 60.9062C289.363 61.125 288.633 61.2344 287.812 61.2344Z" fill="#888888"/>
<path d="M109.219 107.422H100.734V101.07H109.219C110.375 101.07 111.312 100.875 112.031 100.484C112.75 100.094 113.273 99.5547 113.602 98.8672C113.945 98.1641 114.117 97.375 114.117 96.5C114.117 95.5625 113.945 94.6953 113.602 93.8984C113.273 93.1016 112.75 92.4609 112.031 91.9766C111.312 91.4766 110.375 91.2266 109.219 91.2266H103.828V119H95.6016V84.875H109.219C111.953 84.875 114.305 85.375 116.273 86.375C118.258 87.375 119.781 88.75 120.844 90.5C121.906 92.2344 122.438 94.2188 122.438 96.4531C122.438 98.6562 121.906 100.578 120.844 102.219C119.781 103.859 118.258 105.141 116.273 106.062C114.305 106.969 111.953 107.422 109.219 107.422ZM134.461 99.9219V119H126.562V93.6406H133.945L134.461 99.9219ZM141.961 93.4531L141.82 100.789C141.508 100.758 141.086 100.719 140.555 100.672C140.023 100.625 139.578 100.602 139.219 100.602C138.297 100.602 137.5 100.711 136.828 100.93C136.172 101.133 135.625 101.445 135.188 101.867C134.766 102.273 134.453 102.789 134.25 103.414C134.062 104.039 133.977 104.766 133.992 105.594L132.562 104.656C132.562 102.953 132.727 101.406 133.055 100.016C133.398 98.6094 133.883 97.3984 134.508 96.3828C135.133 95.3516 135.891 94.5625 136.781 94.0156C137.672 93.4531 138.672 93.1719 139.781 93.1719C140.172 93.1719 140.555 93.1953 140.93 93.2422C141.32 93.2891 141.664 93.3594 141.961 93.4531ZM142.852 106.578V106.086C142.852 104.227 143.117 102.516 143.648 100.953C144.18 99.375 144.961 98.0078 145.992 96.8516C147.023 95.6953 148.297 94.7969 149.812 94.1562C151.328 93.5 153.078 93.1719 155.062 93.1719C157.062 93.1719 158.82 93.5 160.336 94.1562C161.867 94.7969 163.148 95.6953 164.18 96.8516C165.211 98.0078 165.992 99.375 166.523 100.953C167.055 102.516 167.32 104.227 167.32 106.086V106.578C167.32 108.422 167.055 110.133 166.523 111.711C165.992 113.273 165.211 114.641 164.18 115.812C163.148 116.969 161.875 117.867 160.359 118.508C158.844 119.148 157.094 119.469 155.109 119.469C153.125 119.469 151.367 119.148 149.836 118.508C148.305 117.867 147.023 116.969 145.992 115.812C144.961 114.641 144.18 113.273 143.648 111.711C143.117 110.133 142.852 108.422 142.852 106.578ZM150.75 106.086V106.578C150.75 107.531 150.82 108.422 150.961 109.25C151.102 110.078 151.336 110.805 151.664 111.43C151.992 112.039 152.438 112.516 153 112.859C153.562 113.203 154.266 113.375 155.109 113.375C155.938 113.375 156.625 113.203 157.172 112.859C157.734 112.516 158.18 112.039 158.508 111.43C158.836 110.805 159.07 110.078 159.211 109.25C159.352 108.422 159.422 107.531 159.422 106.578V106.086C159.422 105.164 159.352 104.297 159.211 103.484C159.07 102.656 158.836 101.93 158.508 101.305C158.18 100.664 157.734 100.164 157.172 99.8047C156.609 99.4453 155.906 99.2656 155.062 99.2656C154.234 99.2656 153.539 99.4453 152.977 99.8047C152.43 100.164 151.992 100.664 151.664 101.305C151.336 101.93 151.102 102.656 150.961 103.484C150.82 104.297 150.75 105.164 150.75 106.086ZM171.422 93.6406H179.344V119.82C179.344 121.852 178.953 123.562 178.172 124.953C177.391 126.359 176.273 127.422 174.82 128.141C173.367 128.875 171.633 129.242 169.617 129.242C168.945 129.242 168.328 129.211 167.766 129.148C167.188 129.102 166.555 129 165.867 128.844V122.867C166.273 122.93 166.648 122.977 166.992 123.008C167.336 123.055 167.711 123.078 168.117 123.078C168.836 123.078 169.438 122.961 169.922 122.727C170.406 122.492 170.773 122.133 171.023 121.648C171.289 121.164 171.422 120.555 171.422 119.82V93.6406ZM170.836 87.1016C170.836 85.9766 171.242 85.0547 172.055 84.3359C172.867 83.6172 173.922 83.2578 175.219 83.2578C176.516 83.2578 177.57 83.6172 178.383 84.3359C179.195 85.0547 179.602 85.9766 179.602 87.1016C179.602 88.2266 179.195 89.1484 178.383 89.8672C177.57 90.5859 176.516 90.9453 175.219 90.9453C173.922 90.9453 172.867 90.5859 172.055 89.8672C171.242 89.1484 170.836 88.2266 170.836 87.1016ZM196.102 119.469C194.039 119.469 192.195 119.148 190.57 118.508C188.945 117.852 187.57 116.953 186.445 115.812C185.336 114.672 184.484 113.359 183.891 111.875C183.312 110.391 183.023 108.82 183.023 107.164V106.273C183.023 104.414 183.281 102.695 183.797 101.117C184.312 99.5234 185.078 98.1328 186.094 96.9453C187.109 95.7578 188.383 94.8359 189.914 94.1797C191.445 93.5078 193.227 93.1719 195.258 93.1719C197.055 93.1719 198.664 93.4609 200.086 94.0391C201.508 94.6172 202.711 95.4453 203.695 96.5234C204.695 97.6016 205.453 98.9062 205.969 100.438C206.5 101.969 206.766 103.688 206.766 105.594V108.805H186.047V103.859H199.055V103.25C199.07 102.406 198.922 101.688 198.609 101.094C198.312 100.5 197.875 100.047 197.297 99.7344C196.719 99.4219 196.016 99.2656 195.188 99.2656C194.328 99.2656 193.617 99.4531 193.055 99.8281C192.508 100.203 192.078 100.719 191.766 101.375C191.469 102.016 191.258 102.758 191.133 103.602C191.008 104.445 190.945 105.336 190.945 106.273V107.164C190.945 108.102 191.07 108.953 191.32 109.719C191.586 110.484 191.961 111.141 192.445 111.688C192.945 112.219 193.539 112.633 194.227 112.93C194.93 113.227 195.727 113.375 196.617 113.375C197.695 113.375 198.758 113.172 199.805 112.766C200.852 112.359 201.75 111.688 202.5 110.75L206.086 115.016C205.57 115.75 204.836 116.461 203.883 117.148C202.945 117.836 201.82 118.398 200.508 118.836C199.195 119.258 197.727 119.469 196.102 119.469ZM220.688 113.375C221.422 113.375 222.047 113.242 222.562 112.977C223.094 112.695 223.492 112.305 223.758 111.805C224.039 111.289 224.172 110.672 224.156 109.953H231.586C231.602 111.859 231.133 113.531 230.18 114.969C229.242 116.391 227.961 117.5 226.336 118.297C224.727 119.078 222.906 119.469 220.875 119.469C218.891 119.469 217.156 119.148 215.672 118.508C214.188 117.852 212.945 116.945 211.945 115.789C210.961 114.617 210.219 113.25 209.719 111.688C209.234 110.125 208.992 108.43 208.992 106.602V106.062C208.992 104.234 209.234 102.539 209.719 100.977C210.219 99.3984 210.961 98.0312 211.945 96.875C212.945 95.7031 214.18 94.7969 215.648 94.1562C217.133 93.5 218.859 93.1719 220.828 93.1719C222.938 93.1719 224.797 93.5703 226.406 94.3672C228.031 95.1641 229.305 96.3203 230.227 97.8359C231.148 99.3516 231.602 101.188 231.586 103.344H224.156C224.172 102.578 224.055 101.891 223.805 101.281C223.555 100.672 223.164 100.188 222.633 99.8281C222.117 99.4531 221.453 99.2656 220.641 99.2656C219.828 99.2656 219.172 99.4453 218.672 99.8047C218.172 100.164 217.789 100.664 217.523 101.305C217.273 101.93 217.102 102.648 217.008 103.461C216.93 104.273 216.891 105.141 216.891 106.062V106.602C216.891 107.539 216.93 108.422 217.008 109.25C217.102 110.062 217.281 110.781 217.547 111.406C217.812 112.016 218.195 112.5 218.695 112.859C219.195 113.203 219.859 113.375 220.688 113.375ZM248.32 93.6406V99.125H233.039V93.6406H248.32ZM236.25 87.3359H244.148V110.727C244.148 111.398 244.227 111.922 244.383 112.297C244.539 112.656 244.805 112.914 245.18 113.07C245.57 113.211 246.086 113.281 246.727 113.281C247.18 113.281 247.555 113.273 247.852 113.258C248.148 113.227 248.43 113.188 248.695 113.141V118.789C248.023 119.008 247.32 119.172 246.586 119.281C245.852 119.406 245.07 119.469 244.242 119.469C242.555 119.469 241.109 119.203 239.906 118.672C238.719 118.141 237.812 117.305 237.188 116.164C236.562 115.023 236.25 113.539 236.25 111.711V87.3359ZM277.406 107.422H268.922V101.07H277.406C278.562 101.07 279.5 100.875 280.219 100.484C280.938 100.094 281.461 99.5547 281.789 98.8672C282.133 98.1641 282.305 97.375 282.305 96.5C282.305 95.5625 282.133 94.6953 281.789 93.8984C281.461 93.1016 280.938 92.4609 280.219 91.9766C279.5 91.4766 278.562 91.2266 277.406 91.2266H272.016V119H263.789V84.875H277.406C280.141 84.875 282.492 85.375 284.461 86.375C286.445 87.375 287.969 88.75 289.031 90.5C290.094 92.2344 290.625 94.2188 290.625 96.4531C290.625 98.6562 290.094 100.578 289.031 102.219C287.969 103.859 286.445 105.141 284.461 106.062C282.492 106.969 280.141 107.422 277.406 107.422ZM302.414 83V119H294.516V83H302.414ZM301.477 105.453L299.625 105.5C299.625 103.719 299.844 102.078 300.281 100.578C300.719 99.0781 301.344 97.7734 302.156 96.6641C302.969 95.5547 303.945 94.6953 305.086 94.0859C306.227 93.4766 307.492 93.1719 308.883 93.1719C310.133 93.1719 311.273 93.3516 312.305 93.7109C313.352 94.0703 314.25 94.6484 315 95.4453C315.766 96.2422 316.352 97.2812 316.758 98.5625C317.18 99.8438 317.391 101.406 317.391 103.25V119H309.445V103.203C309.445 102.172 309.297 101.375 309 100.812C308.719 100.234 308.312 99.8359 307.781 99.6172C307.25 99.3828 306.602 99.2656 305.836 99.2656C304.914 99.2656 304.164 99.4219 303.586 99.7344C303.008 100.047 302.562 100.484 302.25 101.047C301.953 101.594 301.75 102.242 301.641 102.992C301.531 103.742 301.477 104.562 301.477 105.453ZM330.117 93.6406V119H322.195V93.6406H330.117ZM321.727 87.1016C321.727 85.9766 322.133 85.0547 322.945 84.3359C323.758 83.6172 324.812 83.2578 326.109 83.2578C327.406 83.2578 328.461 83.6172 329.273 84.3359C330.086 85.0547 330.492 85.9766 330.492 87.1016C330.492 88.2266 330.086 89.1484 329.273 89.8672C328.461 90.5859 327.406 90.9453 326.109 90.9453C324.812 90.9453 323.758 90.5859 322.945 89.8672C322.133 89.1484 321.727 88.2266 321.727 87.1016ZM343.336 83V119H335.414V83H343.336ZM347.227 106.578V106.086C347.227 104.227 347.492 102.516 348.023 100.953C348.555 99.375 349.336 98.0078 350.367 96.8516C351.398 95.6953 352.672 94.7969 354.188 94.1562C355.703 93.5 357.453 93.1719 359.438 93.1719C361.438 93.1719 363.195 93.5 364.711 94.1562C366.242 94.7969 367.523 95.6953 368.555 96.8516C369.586 98.0078 370.367 99.375 370.898 100.953C371.43 102.516 371.695 104.227 371.695 106.086V106.578C371.695 108.422 371.43 110.133 370.898 111.711C370.367 113.273 369.586 114.641 368.555 115.812C367.523 116.969 366.25 117.867 364.734 118.508C363.219 119.148 361.469 119.469 359.484 119.469C357.5 119.469 355.742 119.148 354.211 118.508C352.68 117.867 351.398 116.969 350.367 115.812C349.336 114.641 348.555 113.273 348.023 111.711C347.492 110.133 347.227 108.422 347.227 106.578ZM355.125 106.086V106.578C355.125 107.531 355.195 108.422 355.336 109.25C355.477 110.078 355.711 110.805 356.039 111.43C356.367 112.039 356.812 112.516 357.375 112.859C357.938 113.203 358.641 113.375 359.484 113.375C360.312 113.375 361 113.203 361.547 112.859C362.109 112.516 362.555 112.039 362.883 111.43C363.211 110.805 363.445 110.078 363.586 109.25C363.727 108.422 363.797 107.531 363.797 106.578V106.086C363.797 105.164 363.727 104.297 363.586 103.484C363.445 102.656 363.211 101.93 362.883 101.305C362.555 100.664 362.109 100.164 361.547 99.8047C360.984 99.4453 360.281 99.2656 359.438 99.2656C358.609 99.2656 357.914 99.4453 357.352 99.8047C356.805 100.164 356.367 100.664 356.039 101.305C355.711 101.93 355.477 102.656 355.336 103.484C355.195 104.297 355.125 105.164 355.125 106.086ZM388.5 111.875C388.5 111.438 388.352 111.062 388.055 110.75C387.773 110.422 387.273 110.125 386.555 109.859C385.836 109.578 384.828 109.297 383.531 109.016C382.297 108.75 381.133 108.398 380.039 107.961C378.961 107.523 378.016 106.992 377.203 106.367C376.391 105.742 375.75 105 375.281 104.141C374.828 103.281 374.602 102.297 374.602 101.188C374.602 100.109 374.828 99.0938 375.281 98.1406C375.75 97.1719 376.43 96.3203 377.32 95.5859C378.227 94.8359 379.328 94.25 380.625 93.8281C381.922 93.3906 383.398 93.1719 385.055 93.1719C387.336 93.1719 389.305 93.5234 390.961 94.2266C392.617 94.9141 393.891 95.8828 394.781 97.1328C395.688 98.3672 396.141 99.7969 396.141 101.422H388.242C388.242 100.781 388.133 100.234 387.914 99.7812C387.711 99.3281 387.375 98.9844 386.906 98.75C386.438 98.5 385.812 98.375 385.031 98.375C384.484 98.375 383.984 98.4766 383.531 98.6797C383.094 98.8828 382.742 99.1641 382.477 99.5234C382.211 99.8828 382.078 100.305 382.078 100.789C382.078 101.133 382.156 101.445 382.312 101.727C382.484 101.992 382.742 102.242 383.086 102.477C383.43 102.695 383.867 102.898 384.398 103.086C384.93 103.258 385.57 103.414 386.32 103.555C388.023 103.867 389.617 104.312 391.102 104.891C392.586 105.469 393.789 106.289 394.711 107.352C395.648 108.414 396.117 109.844 396.117 111.641C396.117 112.766 395.859 113.805 395.344 114.758C394.828 115.695 394.086 116.523 393.117 117.242C392.148 117.945 390.984 118.492 389.625 118.883C388.266 119.273 386.734 119.469 385.031 119.469C382.609 119.469 380.562 119.039 378.891 118.18C377.219 117.305 375.953 116.211 375.094 114.898C374.25 113.57 373.828 112.227 373.828 110.867H381.188C381.219 111.648 381.406 112.289 381.75 112.789C382.109 113.289 382.586 113.656 383.18 113.891C383.773 114.125 384.461 114.242 385.242 114.242C385.961 114.242 386.555 114.141 387.023 113.938C387.508 113.734 387.875 113.461 388.125 113.117C388.375 112.758 388.5 112.344 388.5 111.875ZM398.836 106.578V106.086C398.836 104.227 399.102 102.516 399.633 100.953C400.164 99.375 400.945 98.0078 401.977 96.8516C403.008 95.6953 404.281 94.7969 405.797 94.1562C407.312 93.5 409.062 93.1719 411.047 93.1719C413.047 93.1719 414.805 93.5 416.32 94.1562C417.852 94.7969 419.133 95.6953 420.164 96.8516C421.195 98.0078 421.977 99.375 422.508 100.953C423.039 102.516 423.305 104.227 423.305 106.086V106.578C423.305 108.422 423.039 110.133 422.508 111.711C421.977 113.273 421.195 114.641 420.164 115.812C419.133 116.969 417.859 117.867 416.344 118.508C414.828 119.148 413.078 119.469 411.094 119.469C409.109 119.469 407.352 119.148 405.82 118.508C404.289 117.867 403.008 116.969 401.977 115.812C400.945 114.641 400.164 113.273 399.633 111.711C399.102 110.133 398.836 108.422 398.836 106.578ZM406.734 106.086V106.578C406.734 107.531 406.805 108.422 406.945 109.25C407.086 110.078 407.32 110.805 407.648 111.43C407.977 112.039 408.422 112.516 408.984 112.859C409.547 113.203 410.25 113.375 411.094 113.375C411.922 113.375 412.609 113.203 413.156 112.859C413.719 112.516 414.164 112.039 414.492 111.43C414.82 110.805 415.055 110.078 415.195 109.25C415.336 108.422 415.406 107.531 415.406 106.578V106.086C415.406 105.164 415.336 104.297 415.195 103.484C415.055 102.656 414.82 101.93 414.492 101.305C414.164 100.664 413.719 100.164 413.156 99.8047C412.594 99.4453 411.891 99.2656 411.047 99.2656C410.219 99.2656 409.523 99.4453 408.961 99.8047C408.414 100.164 407.977 100.664 407.648 101.305C407.32 101.93 407.086 102.656 406.945 103.484C406.805 104.297 406.734 105.164 406.734 106.086ZM434.789 98.5156V128.75H426.891V93.6406H434.25L434.789 98.5156ZM450.352 106.016V106.508C450.352 108.352 450.141 110.062 449.719 111.641C449.297 113.219 448.672 114.594 447.844 115.766C447.016 116.938 445.984 117.852 444.75 118.508C443.531 119.148 442.117 119.469 440.508 119.469C438.992 119.469 437.688 119.133 436.594 118.461C435.5 117.789 434.586 116.859 433.852 115.672C433.117 114.484 432.523 113.125 432.07 111.594C431.617 110.062 431.258 108.445 430.992 106.742V106.109C431.258 104.281 431.617 102.586 432.07 101.023C432.523 99.4453 433.117 98.0703 433.852 96.8984C434.586 95.7266 435.492 94.8125 436.57 94.1562C437.664 93.5 438.969 93.1719 440.484 93.1719C442.094 93.1719 443.508 93.4766 444.727 94.0859C445.961 94.6953 446.992 95.5703 447.82 96.7109C448.664 97.8359 449.297 99.1875 449.719 100.766C450.141 102.344 450.352 104.094 450.352 106.016ZM442.453 106.508V106.016C442.453 105.031 442.383 104.133 442.242 103.32C442.102 102.492 441.875 101.773 441.562 101.164C441.266 100.555 440.867 100.086 440.367 99.7578C439.867 99.4297 439.25 99.2656 438.516 99.2656C437.672 99.2656 436.961 99.3984 436.383 99.6641C435.82 99.9141 435.367 100.305 435.023 100.836C434.695 101.352 434.461 102 434.32 102.781C434.195 103.547 434.141 104.445 434.156 105.477V107.398C434.125 108.586 434.242 109.633 434.508 110.539C434.773 111.43 435.234 112.125 435.891 112.625C436.547 113.125 437.438 113.375 438.562 113.375C439.312 113.375 439.938 113.203 440.438 112.859C440.938 112.5 441.336 112.008 441.633 111.383C441.93 110.742 442.141 110.008 442.266 109.18C442.391 108.352 442.453 107.461 442.453 106.508ZM461.602 83V119H453.703V83H461.602ZM460.664 105.453L458.812 105.5C458.812 103.719 459.031 102.078 459.469 100.578C459.906 99.0781 460.531 97.7734 461.344 96.6641C462.156 95.5547 463.133 94.6953 464.273 94.0859C465.414 93.4766 466.68 93.1719 468.07 93.1719C469.32 93.1719 470.461 93.3516 471.492 93.7109C472.539 94.0703 473.438 94.6484 474.188 95.4453C474.953 96.2422 475.539 97.2812 475.945 98.5625C476.367 99.8438 476.578 101.406 476.578 103.25V119H468.633V103.203C468.633 102.172 468.484 101.375 468.188 100.812C467.906 100.234 467.5 99.8359 466.969 99.6172C466.438 99.3828 465.789 99.2656 465.023 99.2656C464.102 99.2656 463.352 99.4219 462.773 99.7344C462.195 100.047 461.75 100.484 461.438 101.047C461.141 101.594 460.938 102.242 460.828 102.992C460.719 103.742 460.664 104.562 460.664 105.453ZM488.742 116.023L495.305 93.6406H503.789L493.594 122.773C493.375 123.414 493.086 124.102 492.727 124.836C492.367 125.586 491.875 126.297 491.25 126.969C490.625 127.641 489.82 128.188 488.836 128.609C487.867 129.031 486.664 129.242 485.227 129.242C484.461 129.242 483.898 129.203 483.539 129.125C483.195 129.062 482.664 128.945 481.945 128.773V123.125C482.148 123.125 482.32 123.125 482.461 123.125C482.617 123.125 482.789 123.125 482.977 123.125C483.82 123.125 484.492 123.039 484.992 122.867C485.508 122.695 485.898 122.445 486.164 122.117C486.445 121.789 486.664 121.391 486.82 120.922L488.742 116.023ZM487.078 93.6406L492.07 111.383L492.938 119.75H487.641L478.617 93.6406H487.078Z" fill="black"/>
<path d="M1134 0H1348C1356.28 0 1363 6.71573 1363 15V148C1363 156.284 1356.28 163 1348 163H1134V0Z" fill="#F9A43A"/>
<path d="M1234.26 103.786H1262.74V109.357H1234.26V103.786ZM1239.96 114.929H1257.04V120.5H1239.96V114.929ZM1248.5 42.5C1240.95 42.5 1233.71 45.4349 1228.37 50.6592C1223.03 55.8834 1220.03 62.969 1220.03 70.3571C1219.84 74.4057 1220.63 78.4412 1222.34 82.1315C1224.05 85.8219 1226.64 89.0616 1229.88 91.5843C1232.73 94.175 1234.26 95.6514 1234.26 98.2143H1239.96C1239.96 93.0886 1236.8 90.2193 1233.72 87.4614C1231.06 85.4676 1228.94 82.8658 1227.55 79.8838C1226.15 76.9019 1225.53 73.6308 1225.72 70.3571C1225.72 64.4466 1228.12 58.7781 1232.39 54.5988C1236.67 50.4194 1242.46 48.0714 1248.5 48.0714C1254.54 48.0714 1260.33 50.4194 1264.61 54.5988C1268.88 58.7781 1271.28 64.4466 1271.28 70.3571C1271.47 73.6333 1270.84 76.9059 1269.44 79.888C1268.04 82.8701 1265.92 85.4706 1263.25 87.4614C1260.2 90.2471 1257.04 93.0329 1257.04 98.2143H1262.74C1262.74 95.6514 1264.25 94.175 1267.12 91.5564C1270.36 89.0381 1272.94 85.8031 1274.66 82.1176C1276.37 78.4321 1277.16 74.4014 1276.97 70.3571C1276.97 66.6989 1276.24 63.0765 1274.81 59.6967C1273.37 56.3169 1271.28 53.2459 1268.63 50.6592C1265.99 48.0724 1262.85 46.0205 1259.4 44.6205C1255.94 43.2205 1252.24 42.5 1248.5 42.5Z" fill="white"/>
</svg>
